<svg height="39.693" viewBox="0 0 36.153 39.693" width="36.153" xmlns="http://www.w3.org/2000/svg"><path d="m288.2 196.335c-.074-.023 2.86-1.638 3.509.234 0 0 .286.676-.572 1.118a4.662 4.662 0 0 1 .416 1.976c-.078.91-.6 2.6-2.366 2.418a1.911 1.911 0 0 1 -1.742-2.392c.364-1.326 1.508-1.638 1.638-2.106a1.427 1.427 0 0 0 -.883-1.248z" fill="#c70000" transform="translate(-286.586 -191.559)"/><path d="m286.228 161.579s2.458-1.651 4.324-.807 3.3.233 3.193-1.112-.431-1.956-.628-1.848-1.651 1.22-1.633.825.5-2.278-.054-1.686-1.412 2.35-1.441 1.6-.048-2.063-.371-1.328-.718 2.009-.789 1.328-.036-1.561-.287-1.023-.682 1.669-.771.933-.413-.108-.52.2a12.782 12.782 0 0 1 -1.22 1.453c-.261.33-.821.986.197 1.465z" fill="#c70000" transform="translate(-285.026 -156.836)"/><path d="m280.991 203.54a1.22 1.22 0 0 0 -1.166 1.238s1.579-.538 2.189-.179a1.214 1.214 0 0 0 -1.023-1.059z" fill="#2d2d2d" transform="translate(-279.825 -198.6)"/><path d="m289.279 214.8a6.213 6.213 0 0 1 -.626.545 1.77 1.77 0 0 0 -.647 1.013s-.216-1.958 1.273-1.558z" fill="#2d2d2d" transform="translate(-287.131 -208.619)"/><path d="m310.147 202.017a.76.76 0 0 1 .859-.481c.641.122.6.635.6.635a.741.741 0 0 1 -.731.5.71.71 0 0 1 -.728-.654z" fill="#fff" transform="translate(-306.94 -196.794)"/><g fill="#2d2d2d"><path d="m314.943 204.567a.284.284 0 1 0 -.284.284.284.284 0 0 0 .284-.284z" transform="translate(-310.719 -199.264)"/><path d="m469.138 225.934c-.463-1.049-1.7-3.711-7.152-4.255-2.7-.269-8.02 1.474-9.04 5.519a6.34 6.34 0 0 1 3.927-1.632c2.67-.042 4.842 1.763 6.576 3.592l-.043.041c-1.883-1.79-4.22-3.608-6.986-3.261a6.173 6.173 0 0 0 -4 2.471 9.137 9.137 0 0 0 -.573.831 4.065 4.065 0 0 0 -.514 2.7c8.025 2.81 3.723 10.3 3.276 10.905a19.512 19.512 0 0 0 1.472-2.353s-.136 1.448.588 1.15 1.312-3.659 1.312-3.659a2 2 0 0 0 1.448 1.152c.724.045-.045-2.036-.045-2.036s.543.9 1.021.792 0-1.586 0-1.586c1.2 1.7 1.965 1.7 2.282 1.291s-.453-2.114-.453-2.114 1.037 1.526 1.6.945c1-1.2-1.909-4.213-2.931-5.2 3.2 2.992 4.252 2.684 4.252 2.684 1.982.132-1.057-3.733-1.057-3.733 1.949 2.28 2.848 1.556 2.848 1.556.95-.679-1.227-3.571-1.227-3.571s2.381 1.745 2.088.386c-.94-4.359-6.421-4.516-6.421-4.516s4.93-.369 6.761 2.767c1.111 1.9 1.353-.037.991-.866zm-11.974 6.266a4.321 4.321 0 0 0 -3.879-.916 3.984 3.984 0 0 1 4.022.761 5.846 5.846 0 0 1 1.6 3.6 6.961 6.961 0 0 0 -1.743-3.445z" transform="translate(-433.143 -214.796)"/><path d="m356.707 455.49a2.321 2.321 0 0 0 1.722.13s-.921 4.793-.543 5.171a4.392 4.392 0 0 0 .85.732c.331.165.142.708-.142.59s-.91-.8-1.034-.543-.052.921-.336.968c0 0-.449-.354-.661-.212a1.645 1.645 0 0 0 -.85 0 14.276 14.276 0 0 1 -2.689.378c-.239-.094-.333-.354-.121-.5a9.98 9.98 0 0 1 1.983-.307 2.518 2.518 0 0 1 -.8-.071c-.094-.094-.024-.354.472-.307s1.653.024 1.747-.543.854-4.626.402-5.486z" transform="translate(-345.068 -423.899)"/><path d="m413.57 454.879a2.16 2.16 0 0 0 1.785.376s.293 4.322 1.046 4.88.53.962 0 .795c0 0-.209.028-.251.349s-.126 1.074-.279 1.1c0 0-.463-.181-.643.2a.421.421 0 0 1 -.18-.446c.07-.293-.683.028-.851.07a5.227 5.227 0 0 1 -1.548.167s.042-.4-.14-.418c0 0 .084-.349.362-.362a6.727 6.727 0 0 0 1.45-.209c.209-.111.6-.349.446-1.255s-.653-4.578-1.197-5.247z" transform="translate(-398.475 -423.353)"/><path d="m402.221 487.485-.069.649a2.471 2.471 0 0 0 1.757-.906 2.984 2.984 0 0 1 -1.688.257z" transform="translate(-389.212 -452.279)"/><path d="m443.881 481.5a4.6 4.6 0 0 0 .1.655 2.076 2.076 0 0 0 1.283-.655s-.951.325-1.383 0z" transform="translate(-426.527 -447.161)"/><path d="m360.635 513.386a.389.389 0 0 0 0 .224 1.2 1.2 0 0 0 -.346 0 .546.546 0 0 1 .346-.224z" transform="translate(-351.778 -475.671)"/><path d="m347.776 520.117a.667.667 0 0 0 .051.336 1.011 1.011 0 0 0 -.519.058.64.64 0 0 1 .468-.394z" transform="translate(-340.17 -481.69)"/><path d="m388.559 521.464s.387.03.5.193a1.931 1.931 0 0 0 -.376.295.52.52 0 0 1 -.124-.488z" transform="translate(-377.037 -482.894)"/><path d="m406.789 522.415c-.039-.039-.4.122-.5.295a1.73 1.73 0 0 1 .572.041.292.292 0 0 0 -.072-.336z" transform="translate(-392.913 -483.739)"/><path d="m451.965 512.413s.285-.061.325-.142a.451.451 0 0 1 .041.336 1.042 1.042 0 0 0 -.366-.194z" transform="translate(-433.756 -474.674)"/><path d="m439.369 527.652a.594.594 0 0 1 .5-.124 2.753 2.753 0 0 0 -.081.47s-.354-.128-.419-.346z" transform="translate(-422.493 -488.305)"/><path d="m320.823 212.29a5.485 5.485 0 0 0 -2.8-1.211 9.1 9.1 0 0 1 -2.541-.621 4.427 4.427 0 0 1 -1.263-.55 5.024 5.024 0 0 0 .984 1.245 7.615 7.615 0 0 1 -8.812-1.4s-.048-.043-.163-.161a8.1 8.1 0 0 0 8.69 1.514 5.082 5.082 0 0 1 -.919-1.394l-.033-.034a11.9 11.9 0 0 1 -1.574-2.835 15.214 15.214 0 0 0 -1.4-2.352 18.475 18.475 0 0 1 -1.239-1.835 23.4 23.4 0 0 0 -1.578-2.86 4.68 4.68 0 0 0 -2.621-1.828 1.239 1.239 0 0 1 .048 1.781c-.128.173-.141.081-.162.239a5.9 5.9 0 0 0 .224 1.009 3.128 3.128 0 0 1 -1.145 3.136 2.763 2.763 0 0 1 -1.167.4c-.075.009-.43-.023-.475.023-.174.181.061 1.091.1 1.286.008.044.017.087.027.13.2.643.395 1.282.656 1.905a6.369 6.369 0 0 0 2.991 3.61 2.894 2.894 0 0 1 -.422-1.9 3.749 3.749 0 0 0 .762 2.188 5.358 5.358 0 0 1 -3.176-3.1 11.109 11.109 0 0 1 -.534-1.387 1.809 1.809 0 0 1 -.023.346 15.887 15.887 0 0 0 1.645 9.809 10.725 10.725 0 0 0 5.336 4.48c.4.177.275.106.414.631a4.015 4.015 0 0 0 1.259 2.106c1.02.815 2.562.5 2.693-.857a6.851 6.851 0 0 1 -.512-1.27 2.887 2.887 0 0 1 -2.486-1.878 3.539 3.539 0 0 0 1.088 1.157 3.668 3.668 0 0 0 .708.352 4.184 4.184 0 0 1 .78.2c.164.137.219.6.3.827a7.494 7.494 0 0 0 .382.879 2.538 2.538 0 0 0 2.62 1.189 2.392 2.392 0 0 0 1.717-1.572c.058-.149.082-.535.18-.651.14-.166.714-.216.957-.331a4.154 4.154 0 0 0 1.823-1.891c1.438-2.714 1.229-6.563-1.339-8.524zm-2.826-1.212-.406-.016zm-5.788 7.872c-1.978-.937-3.96-2.847-4.3-5.1a7.917 7.917 0 0 0 4.391 4.91 14.773 14.773 0 0 0 6.812 1.081 13.005 13.005 0 0 1 -6.903-.892zm4.583-5.38c1.075.184 2.837.9 3.02 2.153-.512-1.131-1.975-1.66-3.02-2.153z" transform="translate(-300.387 -193.618)"/></g></svg>