<svg height="104.68" viewBox="0 0 414.004 104.68" width="414.004" xmlns="http://www.w3.org/2000/svg"><path d="m722.543 320.387-12.787-26.928a8.224 8.224 0 0 0 -1.161-.556 16.054 16.054 0 0 0 1.044-2.24 22.289 22.289 0 0 1 -1.134 2.2c-.2-.069-.389-.125-.57-.167a.171.171 0 0 0 .014-.062 1.147 1.147 0 0 0 .014-.145 3.084 3.084 0 0 0 0-.612 2.668 2.668 0 0 0 -.034-.278.465.465 0 0 1 -.014-.139 1.6 1.6 0 0 1 .292-.772 15.518 15.518 0 0 0 1.07-2.331 20.935 20.935 0 0 1 -1.322 2.533 1.15 1.15 0 0 1 -.452.369 1.761 1.761 0 0 0 -.292.145v.008h-.011c-.008 0-.014.006-.022.014v-.014a.24.24 0 0 1 .022-.048.924.924 0 0 0 .055-.139c.008-.036.022-.07.028-.1a2.03 2.03 0 0 0 .083-.641v-.145a2.572 2.572 0 0 0 -.089-.606 2.186 2.186 0 0 0 -.077-.27.737.737 0 0 1 -.036-.244 1.962 1.962 0 0 1 .181-.7 15.833 15.833 0 0 0 .751-2.454 21.708 21.708 0 0 1 -.959 2.684 1.027 1.027 0 0 1 -.4.439 2.441 2.441 0 0 0 -.27.18 1.54 1.54 0 0 0 .117-.619v-.006c0-.042-.006-.091-.006-.147a.918.918 0 0 0 -.02-.139.713.713 0 0 0 -.028-.111 2.15 2.15 0 0 0 -.244-.6c-.028-.041-.048-.083-.077-.125a4.1 4.1 0 0 0 -.375-.486c-.048-.05-.125-.127-.2-.2-.2-.187-.266-.4-.341-.89a15.841 15.841 0 0 0 -.564-2.454 19.732 19.732 0 0 1 .494 2.761 1.018 1.018 0 0 1 -.133.57 2.635 2.635 0 0 0 -.145.3.225.225 0 0 0 -.02.05 2.229 2.229 0 0 0 -.119.548.05.05 0 0 0 -.008.028v.3a1.461 1.461 0 0 1 -.4-.792 16.521 16.521 0 0 0 -.87-2.365 22.619 22.619 0 0 1 .842 2.672.961.961 0 0 1 -.07.584c-.034.1-.069.208-.1.313v.008c-.006.013-.006.027-.014.048a2.085 2.085 0 0 0 -.048.548h.006v.008c-.006.014-.006.02 0 .028a.817.817 0 0 0 .014.187c.008.034.014.077.022.119a.082.082 0 0 0 .006.034c0 .014.008.028.008.048a2.172 2.172 0 0 0 .18.486.925.925 0 0 0 .091.167.079.079 0 0 1 -.041-.014c-.1-.034-.209-.069-.314-.1a.969.969 0 0 1 -.522-.278 21.126 21.126 0 0 1 -1.7-2.142 15.467 15.467 0 0 0 1.426 2c.312.367.431.57.437.834v.006a1.621 1.621 0 0 0 .014.278 3.437 3.437 0 0 0 .1.606c.014.048.034.089.048.139a2.222 2.222 0 0 0 .284.584c.022.027.042.063.064.089a1.27 1.27 0 0 0 .1.112c.006.014.02.02.034.034v.014c-.006 0-.014-.008-.02-.008h-.008a1.75 1.75 0 0 0 -.327-.048 1.058 1.058 0 0 1 -.55-.208 21.834 21.834 0 0 1 -2.029-1.94 15.884 15.884 0 0 0 1.737 1.828c.356.328.508.508.55.78.014.1.034.2.048.278a4.359 4.359 0 0 0 .2.578c.022.048.036.083.063.131a2.508 2.508 0 0 0 .362.542l.077.076a1.01 1.01 0 0 0 .1.1 1.467 1.467 0 0 1 .117.091h.008c.006.006.028.012.034.02a.056.056 0 0 0 .008.034v.008c-.014 0-.022-.008-.036-.008-.1-.02-.208-.034-.327-.048l.008-.006a.98.98 0 0 1 -.558-.2 19.636 19.636 0 0 1 -1.981-1.884 14.731 14.731 0 0 0 1.689 1.773c.363.334.5.508.556.78a1.963 1.963 0 0 0 .05.278 3.485 3.485 0 0 0 .194.584l.062.125a2.109 2.109 0 0 0 .362.536.993.993 0 0 0 .077.083.659.659 0 0 0 .111.1.51.51 0 0 0 .119.091.131.131 0 0 0 .034.022v.006c0 .014.006.014.006.028v.006c-.006 0-.02-.006-.027-.006-.1-.02-.216-.034-.328-.048a1.055 1.055 0 0 1 -.556-.2 20.07 20.07 0 0 1 -2.031-1.948 15.435 15.435 0 0 0 1.739 1.829c.362.334.508.508.556.78a1.942 1.942 0 0 0 .05.278 3.147 3.147 0 0 0 .194.584l.063.125a1.86 1.86 0 0 0 .369.534.452.452 0 0 0 .07.084c.034.034.069.069.111.1s.07.055.111.083h.008c.006.014.02.014.034.02v.008l.006.006v.028c-.014 0-.02-.006-.034-.006h-.006a2.21 2.21 0 0 0 -.328-.048 1.035 1.035 0 0 1 -.548-.209 20.719 20.719 0 0 1 -2.031-1.94 15.937 15.937 0 0 0 1.747 1.815c.369.327.516.508.558.778.02.1.034.2.048.278a4.023 4.023 0 0 0 .2.578.556.556 0 0 0 .063.131 2.044 2.044 0 0 0 .361.536c.022.028.056.056.076.084.036.034.07.069.1.1s.077.063.119.091h.006a.42.42 0 0 0 .042.028v.006a.028.028 0 0 1 .006.02v.014a.055.055 0 0 0 -.027-.006v-.008c-.1-.02-.216-.034-.328-.048a1 1 0 0 1 -.556-.2 21.749 21.749 0 0 1 -2.065-1.983 15.887 15.887 0 0 0 1.773 1.872c.362.326.508.508.556.772v.008c.014.1.036.2.05.27a3.066 3.066 0 0 0 .194.584c.02.042.042.083.063.133a2.067 2.067 0 0 0 .362.534c.027.022.055.056.083.084a.693.693 0 0 0 .1.091.519.519 0 0 0 .119.091.415.415 0 0 1 .034.027v.014h-.028v-.006h-.006a1.435 1.435 0 0 0 -.32-.048.987.987 0 0 1 -.55-.209 19.685 19.685 0 0 1 -1.961-1.858c.02-.131.034-.256.041-.367-.013.077-.034.188-.063.341a.233.233 0 0 0 -.048-.048l.042.063a19.634 19.634 0 0 1 -.613 2.35 1.083 1.083 0 0 1 -.355.466c-.091.07-.173.141-.25.209v.008c-.014.006-.02.02-.028.027l-.006-.006c-.008-.008-.008-.014-.008-.028a.113.113 0 0 1 .014-.042.73.73 0 0 0 .056-.139.715.715 0 0 0 .034-.139.474.474 0 0 0 .02-.111 1.849 1.849 0 0 0 .022-.641c-.008-.055-.008-.1-.014-.145a3.857 3.857 0 0 0 -.147-.6c-.02-.069-.063-.167-.1-.264a.69.69 0 0 1 -.07-.312 2.724 2.724 0 0 1 .119-.633 16.365 16.365 0 0 0 .508-2.547 20.308 20.308 0 0 1 -.7 2.8.97.97 0 0 1 -.355.466 2.531 2.531 0 0 0 -.25.209v.006l-.02.02-.008-.006a.039.039 0 0 0 -.012-.028l.006-.006h.013a.1.1 0 0 1 .02-.034v-.008c.02-.042.034-.091.055-.139a.9.9 0 0 0 .036-.139c.006-.034.02-.07.028-.1a2.082 2.082 0 0 0 .012-.653 1.029 1.029 0 0 0 -.012-.139 4.235 4.235 0 0 0 -.147-.6 2.648 2.648 0 0 0 -.1-.258v-.006a1.338 1.338 0 0 1 .056-.947 15.271 15.271 0 0 0 .5-2.545 21 21 0 0 1 -.7 2.8 1.092 1.092 0 0 1 -.355.466c-.091.069-.173.139-.25.208v.008l-.02.02-.008-.006a.159.159 0 0 0 -.006-.028.059.059 0 0 1 .02-.042 1.256 1.256 0 0 1 .048-.139.888.888 0 0 0 .034-.139c.014-.034.014-.077.028-.1a2.3 2.3 0 0 0 .022-.653c-.008-.048-.014-.091-.022-.139a2.922 2.922 0 0 0 -.145-.6 2.121 2.121 0 0 0 -.1-.258.868.868 0 0 1 -.062-.327 2.856 2.856 0 0 1 .111-.633 15.455 15.455 0 0 0 .516-2.531 20.725 20.725 0 0 1 -.7 2.789.994.994 0 0 1 -.355.466c-.091.07-.173.139-.25.209v.006c-.008.006-.008.014-.022.02v-.014a.177.177 0 0 1 .014-.055.911.911 0 0 0 .014-.139c0-.034.008-.077.008-.111a2.227 2.227 0 0 0 -.07-.647.888.888 0 0 0 -.042-.139 3.031 3.031 0 0 0 -.222-.572 2.469 2.469 0 0 0 -.139-.242.878.878 0 0 1 -.119-.473 3.565 3.565 0 0 1 .042-.48 15.717 15.717 0 0 0 .139-2.581 21.145 21.145 0 0 1 -.3 2.859 1.082 1.082 0 0 1 -.286.514 2.487 2.487 0 0 0 -.222.244h.006l-.006.008v-.008a1.6 1.6 0 0 0 -.028-.633v-.021c-.008-.042-.028-.091-.042-.139s-.034-.091-.056-.133-.034-.069-.048-.1a2.369 2.369 0 0 0 -.383-.522c-.034-.034-.062-.069-.1-.1a3.685 3.685 0 0 0 -.486-.383c-.056-.042-.147-.091-.244-.147-.237-.139-.355-.333-.536-.786a14.99 14.99 0 0 0 -1.155-2.3 20.824 20.824 0 0 1 1.155 2.615.914.914 0 0 1 0 .583c-.028.119-.048.217-.063.32v.008c0 .02-.008.027-.008.048a2.6 2.6 0 0 0 .008.562h.006v.036c.008.055.028.117.042.173a.472.472 0 0 0 .028.111c-.216-.1-.355-.292-.578-.681a16.248 16.248 0 0 0 -1.433-2.136 20.039 20.039 0 0 1 1.475 2.448 1 1 0 0 1 .083.584 1.763 1.763 0 0 0 -.027.32h.006v.006a.116.116 0 0 0 -.006.05 2.2 2.2 0 0 0 .083.548l.008.008v.028c.02.063.041.117.063.173a.5.5 0 0 0 .048.111c.006.014.014.02.014.034a.142.142 0 0 0 .028.048 2.259 2.259 0 0 0 .278.431c.041.05.083.091.131.141h-.042v-.008h-.006c-.1-.006-.209-.014-.327-.014l.006-.006a.98.98 0 0 1 -.57-.147 20.829 20.829 0 0 1 -2.253-1.773 16.237 16.237 0 0 0 1.947 1.69c.4.292.556.459.626.715v.008c.028.1.056.2.077.27a3.723 3.723 0 0 0 .258.558c.02.041.048.083.069.117a2.409 2.409 0 0 0 .417.5.572.572 0 0 0 .084.077c.034.027.077.063.111.089.014.008.034.014.048.022v.006a.008.008 0 0 0 .008.008h-.028a2.454 2.454 0 0 0 -.32.028 1.082 1.082 0 0 1 -.6-.07 22.063 22.063 0 0 1 -2.476-1.447 14.992 14.992 0 0 0 2.17 1.4c.425.237.613.377.717.627.041.1.083.2.117.258a3.648 3.648 0 0 0 .328.522 1.291 1.291 0 0 0 .091.111 2.017 2.017 0 0 0 .48.437.929.929 0 0 0 .1.063.547.547 0 0 0 .125.062.507.507 0 0 0 .133.063v.008l.006-.008c.008.008.028.008.042.014v.008a.026.026 0 0 0 .006.02l.008.014h-.036a1.849 1.849 0 0 0 -.327.028l-.001-.009a.993.993 0 0 1 -.592-.069 20.361 20.361 0 0 1 -2.44-1.412 16.021 16.021 0 0 0 2.132 1.381c.425.236.613.369.717.625.041.1.083.2.117.258a3.211 3.211 0 0 0 .326.514c.036.042.063.084.091.119a2.425 2.425 0 0 0 .48.431c.036.02.064.048.1.07s.083.048.125.069a.867.867 0 0 1 .131.056h.008a.1.1 0 0 0 .042.006v.014c.006.008.014.014.014.02v.014h-.028v-.006c-.1.006-.209.014-.327.028a1 1 0 0 1 -.592-.07 19.462 19.462 0 0 1 -2.434-1.412 16.172 16.172 0 0 0 2.122 1.378c.431.236.612.369.723.626.041.1.083.188.111.25a2.97 2.97 0 0 0 .334.522c.027.041.063.077.091.117a2.151 2.151 0 0 0 .48.431.563.563 0 0 0 .1.063c.042.022.077.05.125.07a.846.846 0 0 0 .133.056v.006l.006-.006a.061.061 0 0 0 .034.012v.008h.008c0 .014.006.02.006.028v.006h-.043a2.7 2.7 0 0 0 -.328.028 1.021 1.021 0 0 1 -.584-.07 21.106 21.106 0 0 1 -2.44-1.419 16.175 16.175 0 0 0 2.128 1.378c.431.236.619.375.723.625.042.1.084.2.119.258a3.541 3.541 0 0 0 .32.522 1.384 1.384 0 0 1 .1.111 2.236 2.236 0 0 0 .48.439.717.717 0 0 0 .091.055c.042.028.091.048.125.076a1.03 1.03 0 0 0 .139.056.142.142 0 0 0 .048.014l.008.006a.029.029 0 0 1 .006.022c0 .006 0 .006.008.006a.044.044 0 0 0 -.028.006l-.008-.006c-.1.006-.208.02-.319.034a1.032 1.032 0 0 1 -.592-.077 22.572 22.572 0 0 1 -2.44-1.411 15.335 15.335 0 0 0 2.128 1.376c.431.23.612.369.723.627.034.1.083.187.111.256a3.632 3.632 0 0 0 .334.522c.028.036.055.07.083.111a2.146 2.146 0 0 0 .48.431c.036.028.07.042.1.064a1.082 1.082 0 0 0 .125.069c.048.02.091.048.131.063h.008a.047.047 0 0 1 .034.014l.006.006h.008v.008a.08.08 0 0 0 -.034.006v-.009c-.1.006-.209.014-.328.028a1.03 1.03 0 0 1 -.583-.07 20.47 20.47 0 0 1 -2.442-1.419 16.164 16.164 0 0 0 2.128 1.384c.431.23.612.369.723.619a2.729 2.729 0 0 0 .111.258 3.447 3.447 0 0 0 .328.522.719.719 0 0 0 .1.111 2.074 2.074 0 0 0 .48.438c.028.022.063.042.091.063a1.487 1.487 0 0 0 .133.07.778.778 0 0 0 .131.056.16.16 0 0 0 .034.014h.008c0 .006.006.006.014.013.048.014.1.028.153.042s.1.02.159.028a1.834 1.834 0 0 0 .348.006c.041-.006.083-.006.125-.014h.014a.055.055 0 0 1 .034-.006c.006-.006.02-.006.034-.006s.048-.014.07-.022.055-.006.083-.014a.489.489 0 0 1 .048.048v.008q.314.75.669 1.634a.089.089 0 0 0 -.022.028.166.166 0 0 0 0 .236.13.13 0 0 0 .133 0c.778 1.948 1.676 4.3 2.559 6.823-1.2.022-2.392.034-3.6.056a11.029 11.029 0 0 1 .78-6.468 9.474 9.474 0 0 0 -2.428 6.488h-.034a8.286 8.286 0 0 1 .6-4.721 6.642 6.642 0 0 0 -1.646 3.167 12.3 12.3 0 0 1 1-4.709 9.073 9.073 0 0 0 -2.253 4.584 11.877 11.877 0 0 1 -.669-5.362 9.373 9.373 0 0 0 -.431 6.724l-1.536-2.914.709 3.311h-.216a12.415 12.415 0 0 1 -1.739-4.173 8.173 8.173 0 0 0 .514 4.193c-.077 0-.145.008-.222.008l-1.7-2.253.494 2.281h-.472a5.442 5.442 0 0 1 -.731-4.209 11.391 11.391 0 0 0 -.667 4.034 12.209 12.209 0 0 1 -1.044-4.812 9 9 0 0 0 -.209 5.049h-.355a9.082 9.082 0 0 1 -.417-2.657 6.41 6.41 0 0 0 -.327 2.678h-.23a12.438 12.438 0 0 1 -.653-3.846 8.769 8.769 0 0 0 -.411 3.875l-.855.02a12.608 12.608 0 0 1 -1.747-3.442 8.937 8.937 0 0 0 .619 3.464c-.4.014-.812.02-1.223.027a7.916 7.916 0 0 1 .57-4.61 6.787 6.787 0 0 0 -1.753 4.646h-.034a5.952 5.952 0 0 1 .431-3.353 4.693 4.693 0 0 0 -1.161 2.261 8.625 8.625 0 0 1 .722-3.387 6.518 6.518 0 0 0 -1.62 3.3 8.5 8.5 0 0 1 -.48-3.853 6.437 6.437 0 0 0 -.55 3.72 7.655 7.655 0 0 1 -.9-2.392 6.187 6.187 0 0 0 .548 3.456l-1.558-2.058.466 2.176a3.249 3.249 0 0 1 -.911-1.509 8.893 8.893 0 0 0 -.069-4.951 11.807 11.807 0 0 1 -1.469 5.251 8.958 8.958 0 0 0 -1.55-4.876 12.359 12.359 0 0 1 .292 4.813 6.719 6.719 0 0 0 -1.141-3.381 8.117 8.117 0 0 1 -.175 4.924 9.543 9.543 0 0 0 -1.411-6.955 12.581 12.581 0 0 1 .312 4.687 8.805 8.805 0 0 0 -.856-4.207 11.962 11.962 0 0 1 -.667 5.39 9.076 9.076 0 0 0 -2.273-4.6 12.239 12.239 0 0 1 1.014 4.729 6.669 6.669 0 0 0 -1.634-3.178 8.5 8.5 0 0 1 .669 4.395.553.553 0 0 0 -.111.008 9.4 9.4 0 0 0 -2.436-6.176 11.167 11.167 0 0 1 .848 6.224q-6.142.2-12.33.445a3.426 3.426 0 0 1 .653-.9c.391-.4.919-.494.814-.759.07-.027.139-.048.216-.076a9.315 9.315 0 0 0 3.115-1.362c.85-.806 0-1.008.647-1.412a2.475 2.475 0 0 0 1.211-1.4c.362-.8 1.892-1.294 1.5-3.332s-.466.87-6.67-.709c-.576-.48-.626-1.4-1.147-1.425-.439-.014-.647-2.782-2.129-4.326-.236-.272-.444-.556-.556-.655s-.145-.187-.333-.27-.113-.139-.292-.237a3.92 3.92 0 0 0 -1.072-.077c-.383-.006-.077-.111-.452-.089a1.518 1.518 0 0 0 -.981.591c-.292.306-.723.536-.8.689a1.165 1.165 0 0 1 -.222.312.5.5 0 0 0 -.125.312.793.793 0 0 1 -.112.355c-.083.125-.1-.23-.159.23a1.428 1.428 0 0 0 .312.919s-1.272.3-1.362 1.07c0 0 1.03-.216 1.314 0s.933.57.883 1.114.445 1.725.008 2.92a3.49 3.49 0 0 0 .73 3.575c.947 1.176 2.212 1.858 2.5 2.343a3.513 3.513 0 0 0 2.5 1.134 3.733 3.733 0 0 1 -1.044 1.5c-5.577.222-11.191.472-16.8.744a.353.353 0 0 0 -.139-.125c-.161-.076-.578-.181-.578-.417a2.42 2.42 0 0 1 .717-1.14c.389-.4.925-.494.82-.759.07-.027.139-.048.216-.076a9.316 9.316 0 0 0 3.105-1.372c.85-.806 0-1.008.647-1.412a2.5 2.5 0 0 0 1.211-1.4c.361-.8 1.892-1.294 1.5-3.332s-.466.87-6.669-.709c-.578-.48-.626-1.4-1.155-1.425-.431-.014-.639-2.782-2.121-4.326-.236-.272-.445-.556-.562-.655s-.139-.187-.327-.27-.113-.139-.292-.237a3.918 3.918 0 0 0 -1.072-.077c-.383-.006-.077-.111-.452-.089a1.518 1.518 0 0 0 -.981.591c-.292.306-.723.536-.8.689a1.163 1.163 0 0 1 -.222.312.5.5 0 0 0 -.125.312.79.79 0 0 1 -.113.355c-.083.125-.1-.23-.159.23a1.415 1.415 0 0 0 .32.919s-1.28.3-1.37 1.07c0 0 1.028-.216 1.314 0s.933.57.883 1.114.445 1.725 0 2.92a3.494 3.494 0 0 0 .737 3.575c.947 1.176 2.212 1.858 2.5 2.343a3.471 3.471 0 0 0 2.489 1.134 3.831 3.831 0 0 1 -1.175 1.62c-.681.584-.612.341-1.1.655s-1.725-.028-1.983-.028a.937.937 0 0 0 -.633.284q-8.106.419-16.226.919c.167-.131.536-.216.626-.369s.4-.292.32-.6.133-.612.48-.4.6.409.737.194.5-.222.562-.062a.512.512 0 0 0 -.494-.48c-.466-.042-.889-.32-1.181-.347s-.362-.05-.326-.439c.02-.389-.6-.355-.675-2.42 1.779-.034 4.437-2.962 5-3.339s.417-.945 1.809-2.094-.1-2.148-.181-2.476 1-.653 2.065-1.683.592-3.039 1.94-3.575 1.342-2.629 1.342-2.656c.967-.369 1.253-2.136 1.253-2.136 1.056-.627.438-2.49.438-2.49a22.016 22.016 0 0 0 1.781-2.184 1.892 1.892 0 0 0 -.1-2.037s.814-1.614-1.606-2.4-6.482 3.207-6.482 3.207c-1.286-.077-2.275 1.654-2.768 1.737a18 18 0 0 0 -2.857 2.289 40.06 40.06 0 0 1 -5.209.341 5.422 5.422 0 0 1 -4.238-2.732c-.584-1.058-2.17-5.3-2.845-6.476a4.7 4.7 0 0 0 -3.964-2.684.126.126 0 0 0 -.048 0c.173-.139-.028-.284.056-.591.117-.453-.467-.633-.62-.467s-.423.431-.417.252-.077-.522-.23-.161-.445.459-.451.328.02-.425-.153-.167-.292.522-.4.389-.091-.355-.272 0-.284.222-.536.466.036.584-.278 1.106.431.806.431.806c-1.725-.048-1.89.975-1.89.975a2.469 2.469 0 0 1 1.759.208 1.571 1.571 0 0 0 1.112 2.358 52.259 52.259 0 0 1 -2.365 8.958c-1.7 4.528-.152 7.824 2.984 10.717s6.976 4.715 6.9 5.96.752.82 1.266 1.467a.743.743 0 0 0 .237.173c.055.2.48.286.4.655a21.026 21.026 0 0 1 -1.858 3.456q-7.792.532-15.529 1.12a.951.951 0 0 0 -.6-.264c-.258 0-1.5.355-1.983.041s-.417-.069-1.1-.659a3.8 3.8 0 0 1 -1.176-1.614 3.5 3.5 0 0 0 2.5-1.134c.286-.486 1.551-1.175 2.5-2.344a3.5 3.5 0 0 0 .736-3.575c-.444-1.2.05-2.379 0-2.922s.606-.9.884-1.112 1.322 0 1.322 0c-.1-.78-1.37-1.072-1.37-1.072a1.439 1.439 0 0 0 .313-.917c-.056-.466-.077-.111-.153-.237a.7.7 0 0 1 -.119-.355.438.438 0 0 0 -.125-.3 1.487 1.487 0 0 1 -.222-.314c-.07-.153-.508-.383-.794-.687a1.558 1.558 0 0 0 -.987-.6c-.375-.022-.069.083-.451.1a3.645 3.645 0 0 0 -1.072.077c-.18.091-.111.145-.292.23s-.216.181-.327.278-.326.383-.556.647v.006c-1.489 1.545-1.7 4.306-2.128 4.326-.528.028-.578.947-1.155 1.426-6.2 1.578-6.26-1.342-6.67.7s1.133 2.532 1.5 3.339a2.515 2.515 0 0 0 1.209 1.4c.647.4-.2.6.647 1.4a9.176 9.176 0 0 0 3.117 1.364c.077.027.145.055.216.083-.1.264.431.348.82.751a2.432 2.432 0 0 1 .717 1.147c0 .23-.411.342-.578.417s-.139.2-.312.314c-.153.1.034.347.069.4-.062-.125.07-.4.445-.361s.487-.348.82-.167.167.2.3.348a.872.872 0 0 0 .3.145c-1.022.077-2.051.161-3.073.244-7.679.633-15.078 1.064-22.221 1.336.139-.717.272-1.551.375-2.533 1.344-12.094 3.089-13.387 3.089-13.387-2.372-.584-4.368 9.869-5.223 15.989h-.008c-.1-3.623-.333-8.332-.814-12.706.919-2.476 1.5-2.843 1.5-2.843-.55-.189-1.126.264-1.711 1.119-.139-1.1-.3-2.162-.473-3.172.6-4.6.459-8.116-1.223-8.408 0 0 .959.884.57 5.313-.758-2.928-1.747-4.82-3.04-4.645 0 0 1.656.786 2.623 7.733a90.135 90.135 0 0 1 -2.992 11.725 57.571 57.571 0 0 0 -1.612 6.071c-1.037.022-2.065.036-3.095.05a11.732 11.732 0 0 1 2.767-4.9 9.466 9.466 0 0 0 -4.332 4.917h-.141a8.607 8.607 0 0 1 2.1-3.867 6.81 6.81 0 0 0 -2.6 2.426 12.237 12.237 0 0 1 2.539-4.089 9.088 9.088 0 0 0 -3.671 3.554 11.837 11.837 0 0 1 1.189-5.285 9.653 9.653 0 0 0 -2.684 7.28h-1.594l-.542-3.776-.508 3.776h-.029a13.221 13.221 0 0 1 -.347-5 8.537 8.537 0 0 0 -.919 4.778l-.869-2.782c.508-1.348.994-2.607 1.439-3.728a.148.148 0 0 0 .133-.006.167.167 0 0 0 0-.237c0-.006-.014-.014-.022-.027.237-.584.459-1.134.669-1.634.02-.022.034-.042.048-.056l.083.02c.028.008.05.008.076.014a.347.347 0 0 0 .036.014h.048a.546.546 0 0 0 .117.014 1.461 1.461 0 0 0 .161.006 1.825 1.825 0 0 0 .188-.006c.056-.014.111-.02.167-.034s.1-.028.153-.042l.006-.006h.008a.052.052 0 0 1 .041-.014c.05-.022.084-.036.133-.062a.737.737 0 0 0 .125-.07c.028-.02.063-.034.1-.056a2.4 2.4 0 0 0 .481-.437 1.183 1.183 0 0 0 .089-.119 3.733 3.733 0 0 0 .328-.514 2.377 2.377 0 0 0 .111-.258c.111-.25.292-.4.723-.625a15.274 15.274 0 0 0 2.128-1.378 20.422 20.422 0 0 1 -2.44 1.419 1.033 1.033 0 0 1 -.584.07 2.639 2.639 0 0 0 -.32-.036l-.008.008c-.006-.008-.006-.008-.02-.008h-.014l.008-.006.006-.006c.014-.008.028-.008.034-.014h.008a1.188 1.188 0 0 0 .131-.056c.042-.02.084-.048.127-.069s.069-.042.1-.062a1.955 1.955 0 0 0 .48-.439l.091-.111a3.211 3.211 0 0 0 .327-.522c.034-.062.077-.159.119-.258.1-.25.292-.389.716-.625a15.028 15.028 0 0 0 2.17-1.406 19.7 19.7 0 0 1 -2.476 1.447 1.077 1.077 0 0 1 -.6.07c-.1-.014-.216-.02-.32-.028v.008h-.008c-.006-.008-.014 0-.027-.008.006 0 .006-.006.006-.014s.006-.006.006-.014l.008-.006a.115.115 0 0 1 .048-.014v-.008a1.018 1.018 0 0 0 .139-.055c.042-.022.083-.048.125-.07a.629.629 0 0 0 .091-.062 2.049 2.049 0 0 0 .48-.437.81.81 0 0 0 .1-.111 3.828 3.828 0 0 0 .328-.516c.034-.062.069-.167.111-.264.111-.25.292-.389.723-.626a15.543 15.543 0 0 0 2.128-1.376 20.228 20.228 0 0 1 -2.44 1.419 1 1 0 0 1 -.592.07l.008.006a1.873 1.873 0 0 0 -.328-.034h-.041v-.017a.026.026 0 0 0 .006-.02h.008v-.008a.1.1 0 0 1 .041-.013 1.284 1.284 0 0 0 .258-.133.7.7 0 0 0 .1-.056 2.621 2.621 0 0 0 .48-.437c.028-.042.056-.077.083-.111a3.213 3.213 0 0 0 .334-.522c.028-.062.077-.159.111-.258.111-.25.292-.389.723-.626a15.04 15.04 0 0 0 2.122-1.376 20.1 20.1 0 0 1 -2.434 1.419 1.055 1.055 0 0 1 -.591.07c-.113-.014-.216-.028-.32-.036v.008h-.034l.006-.008a.044.044 0 0 1 .006-.027h.008v-.008c.014 0 .02-.006.034-.014h.008a1.31 1.31 0 0 0 .131-.055.748.748 0 0 0 .125-.07c.036-.02.063-.042.1-.063a2.43 2.43 0 0 0 .48-.437c.028-.036.063-.076.091-.112a3.474 3.474 0 0 0 .333-.52c.028-.062.07-.161.113-.252v-.006c.111-.25.292-.389.723-.627a16.156 16.156 0 0 0 2.12-1.37 21.06 21.06 0 0 1 -2.44 1.412 1.01 1.01 0 0 1 -.584.069 3.036 3.036 0 0 0 -.327-.027h-.048l.008-.008c.006-.014.014-.02.014-.028v-.006a.047.047 0 0 0 .034-.014l.006.008v-.008a.965.965 0 0 0 .133-.056.969.969 0 0 0 .222-.131 2.063 2.063 0 0 0 .481-.431 1.162 1.162 0 0 0 .089-.119 3.42 3.42 0 0 0 .334-.522c.028-.062.07-.153.111-.25.113-.25.292-.389.723-.627a15.049 15.049 0 0 0 2.122-1.376 19.423 19.423 0 0 1 -2.434 1.412.987.987 0 0 1 -.591.069c-.112-.014-.223-.02-.328-.028v.008h-.024a.025.025 0 0 0 .006-.014h.008c.013-.014.027-.014.041-.028a.7.7 0 0 0 .111-.091.29.29 0 0 0 .084-.069 2.04 2.04 0 0 0 .417-.5c.028-.041.048-.083.077-.117a4.766 4.766 0 0 0 .25-.564c.028-.07.048-.173.077-.272.07-.264.237-.423.626-.723a16.349 16.349 0 0 0 1.954-1.683 22.943 22.943 0 0 1 -2.254 1.767 1.075 1.075 0 0 1 -.57.153c-.117 0-.222.006-.326.014l-.006.006a.093.093 0 0 0 -.042.008c.048-.05.091-.1.133-.147a2.109 2.109 0 0 0 .278-.431.126.126 0 0 0 .026-.042c.008-.014.008-.027.014-.034a.543.543 0 0 0 .05-.119c.02-.048.041-.111.063-.166a.047.047 0 0 0 .006-.028v-.008a1.985 1.985 0 0 0 .083-.548v-.056a2.62 2.62 0 0 0 -.02-.327 1 1 0 0 1 .077-.584 20.452 20.452 0 0 1 1.481-2.448 15.316 15.316 0 0 0 -1.439 2.136 1.446 1.446 0 0 1 -.578.687c.014-.041.022-.077.034-.111a1.557 1.557 0 0 0 .036-.181c0-.006.006-.02 0-.028l.006-.006a2.177 2.177 0 0 0 .008-.564.129.129 0 0 0 -.008-.048h.008a2.952 2.952 0 0 0 -.07-.319h.008a.953.953 0 0 1 0-.584 19.485 19.485 0 0 1 1.151-2.615 14.6 14.6 0 0 0 -1.147 2.3c-.189.445-.306.647-.544.78-.089.055-.18.1-.242.145a3.3 3.3 0 0 0 -.481.391c-.034.034-.069.063-.1.1a2.053 2.053 0 0 0 -.376.522 1.113 1.113 0 0 1 -.055.1c-.014.048-.036.089-.05.139s-.034.089-.048.131v.008a1.884 1.884 0 0 0 -.048.4 1.359 1.359 0 0 0 .022.237v.006l-.008-.006h.008a2.258 2.258 0 0 0 -.216-.244.968.968 0 0 1 -.292-.516 20.944 20.944 0 0 1 -.3-2.857 15.76 15.76 0 0 0 .147 2.587 1.3 1.3 0 0 1 -.084.945c-.048.1-.1.181-.139.251a2.683 2.683 0 0 0 -.222.57c-.014.041-.028.083-.042.131a2.543 2.543 0 0 0 -.07.647c0 .042.008.077.008.111a.922.922 0 0 0 .02.147c0 .014.008.034.008.048v.014l-.022-.02v-.008c-.069-.063-.159-.139-.25-.208a1 1 0 0 1 -.355-.467 21.232 21.232 0 0 1 -.7-2.789 14.878 14.878 0 0 0 .508 2.547 1.331 1.331 0 0 1 .048.945c-.042.1-.077.2-.1.258a3.352 3.352 0 0 0 -.145.6.831.831 0 0 0 -.014.145 2.568 2.568 0 0 0 .014.647.65.65 0 0 1 .028.1.824.824 0 0 0 .041.145 1.114 1.114 0 0 0 .048.133v.006a.219.219 0 0 1 .022.034c-.008.014-.014.022-.014.028l-.008.014-.02-.02v-.008a2.608 2.608 0 0 0 -.25-.216.99.99 0 0 1 -.355-.466 21.211 21.211 0 0 1 -.7-2.789 15.884 15.884 0 0 0 .5 2.539 1.32 1.32 0 0 1 .056.953 2.529 2.529 0 0 0 -.1.264 3.94 3.94 0 0 0 -.145.591c-.008.048-.008.1-.014.147a1.847 1.847 0 0 0 .02.647.692.692 0 0 0 .02.111c.014.048.022.091.036.139s.034.091.055.133v.006c.008.008.014.028.022.034v.008a.222.222 0 0 1 -.014.028l-.008.006c-.006-.006-.006-.014-.02-.014v-.006a1.562 1.562 0 0 0 -.25-.216 1.024 1.024 0 0 1 -.355-.467 21.361 21.361 0 0 1 -.7-2.789 16.262 16.262 0 0 0 .508 2.539 1.391 1.391 0 0 1 .056.953c-.048.1-.083.2-.111.258a4.559 4.559 0 0 0 -.147.6.914.914 0 0 1 -.014.145 2.261 2.261 0 0 0 .022.647l.02.111c.008.042.028.091.042.139a.833.833 0 0 0 .048.133l.02.042v.006c-.006.008-.006.02-.014.02a.029.029 0 0 0 -.006.014.11.11 0 0 0 -.028-.034 2.353 2.353 0 0 0 -.244-.216 1.056 1.056 0 0 1 -.361-.466 18.94 18.94 0 0 1 -.612-2.351.11.11 0 0 1 .022-.028c-.008 0-.014.008-.022.014-.028-.145-.055-.264-.069-.341.006.111.02.237.041.369a20.333 20.333 0 0 1 -1.954 1.864 1.033 1.033 0 0 1 -.556.2c-.111.014-.222.034-.319.048l-.008.008c-.006 0-.02.006-.028.006v-.014h.008v-.006l.028-.02v-.008a.5.5 0 0 0 .125-.083l.1-.1a.417.417 0 0 0 .083-.083 2.08 2.08 0 0 0 .362-.536c.02-.041.042-.091.063-.131a3.361 3.361 0 0 0 .2-.578c.02-.069.034-.173.055-.278.048-.272.188-.445.55-.778a14.969 14.969 0 0 0 1.773-1.872 21.561 21.561 0 0 1 -2.065 1.983.98.98 0 0 1 -.55.208 1.785 1.785 0 0 0 -.327.048.056.056 0 0 0 -.034.008v-.008a.044.044 0 0 1 .006-.027v-.008a.288.288 0 0 0 .048-.028.614.614 0 0 0 .119-.091 1.193 1.193 0 0 0 .1-.1.749.749 0 0 0 .083-.077 1.957 1.957 0 0 0 .355-.542.742.742 0 0 0 .07-.125 3.083 3.083 0 0 0 .194-.584c.014-.07.028-.167.05-.278.048-.272.188-.445.556-.78a14.6 14.6 0 0 0 1.731-1.828 19.923 19.923 0 0 1 -2.031 1.947.94.94 0 0 1 -.548.2c-.112.014-.223.028-.328.048-.014.008-.026.008-.034.014s-.006-.006 0-.014v-.034a.047.047 0 0 0 .034-.014c.05-.034.084-.063.119-.091a.741.741 0 0 0 .111-.1c.028-.028.05-.056.077-.084a2.069 2.069 0 0 0 .362-.534c.02-.048.042-.084.063-.133a3.21 3.21 0 0 0 .194-.576 2.357 2.357 0 0 0 .05-.278 1.4 1.4 0 0 1 .556-.78 15.4 15.4 0 0 0 1.626-1.7 21.025 21.025 0 0 1 -1.918 1.815 1.116 1.116 0 0 1 -.556.209 1.539 1.539 0 0 0 -.32.048c-.014 0-.02.006-.034.006v-.014c0-.006.006-.013.006-.02l.008-.006c.006-.008.02-.014.034-.028.042-.028.077-.056.117-.084s.07-.069.1-.1a.891.891 0 0 0 .077-.083 2.317 2.317 0 0 0 .369-.544c.022-.041.034-.083.056-.125a3.261 3.261 0 0 0 .2-.584c.014-.069.034-.173.048-.278.048-.27.188-.445.55-.772a16.519 16.519 0 0 0 1.745-1.829 20.774 20.774 0 0 1 -2.037 1.94 1.049 1.049 0 0 1 -.556.2l.006.006a2.091 2.091 0 0 0 -.327.042v.006h-.028v-.034c.014-.014.028-.014.034-.028h.008a1.652 1.652 0 0 0 .222-.187.358.358 0 0 0 .077-.077 2.008 2.008 0 0 0 .362-.542.871.871 0 0 0 .069-.125 3.892 3.892 0 0 0 .2-.584c.014-.07.034-.167.048-.278.042-.272.2-.445.556-.78a14.851 14.851 0 0 0 1.733-1.829 20.783 20.783 0 0 1 -2.031 1.948.959.959 0 0 1 -.55.2c-.111.014-.222.028-.326.048h-.008c0 .006-.014.006-.02.006l.006-.006a.217.217 0 0 1 .036-.042 1.391 1.391 0 0 0 .091-.111.392.392 0 0 0 .063-.091 1.927 1.927 0 0 0 .173-.3c.284-.187.437-.292.409-.328-.083-.006-.187.008-.284.008.014-.034.02-.07.034-.1a3.77 3.77 0 0 0 .113-.606c.006-.077.006-.18.012-.278 0-.278.125-.472.431-.848a15.971 15.971 0 0 0 1.5-2.1 22.078 22.078 0 0 1 -1.773 2.247.984.984 0 0 1 -.522.278l.006.006c-.111.028-.222.056-.319.091v.006c-.014 0-.022.008-.042.014a1.09 1.09 0 0 0 .091-.166 2.431 2.431 0 0 0 .181-.487c0-.014.006-.034.006-.048s.006-.034.014-.042c0-.042.014-.077.014-.119a.784.784 0 0 0 .02-.18v-.036a2.15 2.15 0 0 0 -.048-.556.259.259 0 0 0 -.014-.048v-.006a1.59 1.59 0 0 0 -.1-.306.931.931 0 0 1 -.062-.584 21.349 21.349 0 0 1 .84-2.678 16.724 16.724 0 0 0 -.876 2.365 1.473 1.473 0 0 1 -.4.8v-.306a.035.035 0 0 0 -.008-.022v-.006a2.376 2.376 0 0 0 -.117-.55c-.008-.014-.008-.028-.022-.042v-.006c-.042-.1-.091-.2-.139-.292a1.006 1.006 0 0 1 -.139-.576 20.6 20.6 0 0 1 .494-2.762 15.574 15.574 0 0 0 -.562 2.462 1.338 1.338 0 0 1 -.341.891 1.909 1.909 0 0 0 -.2.2 3.2 3.2 0 0 0 -.375.486.812.812 0 0 0 -.07.125 1.991 1.991 0 0 0 -.25.6c-.006.034-.02.07-.028.1a1.124 1.124 0 0 0 -.013.145.954.954 0 0 0 -.014.147v.034a1.649 1.649 0 0 0 .117.591 2.741 2.741 0 0 0 -.27-.187h.014a1.03 1.03 0 0 1 -.411-.431 22.227 22.227 0 0 1 -.959-2.664 15.127 15.127 0 0 0 .744 2.434 1.3 1.3 0 0 1 .145.939 2.2 2.2 0 0 0 -.077.272 3.681 3.681 0 0 0 -.089.6v.147a1.966 1.966 0 0 0 .083.639c.014.042.02.077.034.112a1.224 1.224 0 0 0 .048.131.291.291 0 0 0 .022.048v.014c-.008-.006-.014-.006-.022-.014v-.006a1.883 1.883 0 0 0 -.291-.147 1.027 1.027 0 0 1 -.459-.369 21.075 21.075 0 0 1 -1.322-2.531 14.914 14.914 0 0 0 1.078 2.36 1.322 1.322 0 0 1 .278.911c-.02.1-.034.2-.042.278a3.641 3.641 0 0 0 0 .612c.008.048.008.1.014.139a2.329 2.329 0 0 0 .173.625c.022.036.036.07.05.1-.064.048-.127.091-.2.139a1.009 1.009 0 0 1 -.411-.348 20.372 20.372 0 0 1 -1.3-2.483 15.808 15.808 0 0 0 1.056 2.281 1.521 1.521 0 0 1 .286.856c-.3.242-.6.5-.9.772-.459-.842-.841-1.711-.841-1.711a12.965 12.965 0 0 0 .778 1.765c-.32.292-.639.606-.959.925-.076-.166-.139-.3-.173-.375.034.119.091.258.145.4a32.066 32.066 0 0 0 -4.151 5.174 29.472 29.472 0 0 1 -.3-3.192 21.266 21.266 0 0 0 .87-5.918c-.008 0-.216.709-.78 2.239a3.52 3.52 0 0 0 -.911 2.337c-.23.577-.487 1.2-.772 1.9-.647 1.745-1.481 3.881-2.275 6.5l-.125.125c1.217-8.233 3.061-11.135 3.171-11.308-3.089 2.156-4.979 8.833-6.113 15.154-.292.473-.57.959-.828 1.461-.042-.209-.077-.4-.111-.578.828-3.212 1.731-6.176 1.6-8.066-.008 0-.327 1.1-1.322 3.567.042-.7.056-1.433.042-2.2a.054.054 0 0 0 .014-.028l-.014.014a20.019 20.019 0 0 0 -.683-5.084 8.852 8.852 0 0 1 -.214-1.1 96.219 96.219 0 0 1 .451-10.016c-1.176 1.4-1.787 5.454-2.073 10.336-.7.347-1.411.673-2.162.966-.056.056-.119.1-.175.153a10.716 10.716 0 0 0 -3.22-4.582 19.43 19.43 0 0 1 2.045 5.535c-.32.237-.653.459-.987.669a5.136 5.136 0 0 0 -.842-2.025 83.34 83.34 0 0 1 .272 11.517 15.69 15.69 0 0 0 -2.525-5.5c1.62-15.962 5.056-21 5.056-21-3.4 2.379-5.751 8.715-7.351 15.614-.014-2.2-.048-4.4-.119-6.551a21.9 21.9 0 0 1 2.219-5.585 9.6 9.6 0 0 0 -2.343 2.518c-.361-7.268-1.209-13.423-2.928-15.468a152.78 152.78 0 0 1 .53 20.323c-.481 1.272-.919 2.636-1.322 4.06-.306-.917-.612-1.779-.9-2.6-.25-8.152-1.016-15.489-2.872-17.693 0 0 .494 4.221.57 11.461-.036.014-.064.02-.1.034-1.544-3.873-2.051-5.612-2.065-5.62a22.746 22.746 0 0 0 .806 6.28 19.342 19.342 0 0 0 -2.559 1.94c-.131-.167-.27-.333-.4-.5 2.329-18.437 6.405-24.383 6.405-24.383-4.542 3.164-7.7 11.516-9.875 20.682a23.808 23.808 0 0 0 -4.167-3.164.708.708 0 0 0 -.062-.173v.139l-.014-.008a213.986 213.986 0 0 1 .633-30.377c-3.337 3.95-4.262 19.271-4.318 34.161-2.184-9.4-5.384-18.034-10.014-21.26 0 0 3.331 4.86 5.7 19.416-1.92-1.425-3.639-2.247-4.828-2.247a35.6 35.6 0 0 1 2.094-6.057c.153-.1.236-.173.216-.2-.042-.006-.076 0-.119-.006a9.335 9.335 0 0 1 .516-.939 7.339 7.339 0 0 0 -1.106.959c-1.62.216-4.02 1.683-6.537 3.978-.4-6.8-1.239-12.469-2.873-14.409a142.159 142.159 0 0 1 .6 16.664c-.806.883-1.612 1.836-2.392 2.843-.312-7.212-1.106-13.422-2.789-15.418 0 0 .4 3.4.542 9.341-.131.361-.284.75-.451 1.181-1.245-3.192-1.662-4.638-1.676-4.645a15.551 15.551 0 0 0 .244 3.49 13.5 13.5 0 0 0 -2.74 3.826 32.42 32.42 0 0 0 -6.3-5.843c.077-2.148.181-3.867.27-5.112 1.781-6.418 3.415-8.922 3.512-9.075-3.15 2.2-5.64 6.857-7.615 12.547a2.67 2.67 0 0 0 -.425.014c-.027.034.091.125.32.278-.611 1.8-1.175 3.707-1.7 5.668-.272-.278-.542-.542-.814-.8-.041-2.72-.117-5.41-.23-8.019a11.926 11.926 0 0 1 .6-1.133 5.968 5.968 0 0 0 -.626.5c-.486-10.411-1.661-19.3-4.1-22.2a209.382 209.382 0 0 1 .766 27.2c-.084.187-.167.383-.252.576a9.3 9.3 0 0 0 -2.92-1.334c-.286-5.057-.842-9.452-1.809-11.983 2.8-14.022 6.059-20.03 6.837-21.324.084-.145.139-.23.161-.264-.119.083-.244.167-.362.264-6.585 4.938-11.092 17.609-14.145 31.177a52.144 52.144 0 0 0 -5.537-5.723c-.02-.564-.048-1.12-.069-1.67 1.237-2.712 2.329-3.143 2.329-3.143a2.832 2.832 0 0 0 -2.4 1.023c-.278-8.374-.25-15.67-.1-21.664.3-11.858 1.106-18.638 1.106-18.638-2.392 2.831-3.909 9.757-4.84 18.638-.286 2.706-.514 5.6-.7 8.61v77.431h414c.01.181 0-18.657 0-18.657s-19.14.113-50.3.314c-20.293.136-66.167 1.346-66.124 1.186zm-2.757-2.2a11.813 11.813 0 0 1 -.669-5.354 9.363 9.363 0 0 0 -.423 6.724l-1.537-2.92.806 3.8a13.629 13.629 0 0 1 -2.057-4.653 8.53 8.53 0 0 0 .758 4.806l-2.17-2.865.653 3.018a5.067 5.067 0 0 1 -1.362-4.938 11.435 11.435 0 0 0 -.556 5.4c-1.058.014-2.121.028-3.185.034-.32-4.2-1.05-9.283-1.642-13.053a.145.145 0 0 0 .112-.077.181.181 0 0 0 -.139-.2h-.014c-.091-.564-.175-1.092-.258-1.58a.2.2 0 0 1 .048-.028l.014-.02a1.467 1.467 0 0 0 .125-.1c.028-.027.056-.048.084-.077.041-.048.083-.089.117-.139a1.164 1.164 0 0 0 .139-.194c0-.008 0-.008.014-.014.014-.034.034-.07.048-.1a.329.329 0 0 0 .048-.111.273.273 0 0 0 .042-.111c.008-.006.008-.014.014-.02a.041.041 0 0 1 .006-.022c.022-.006.05-.02.084-.034a1.373 1.373 0 0 0 .284-.2c.042-.034.091-.069.126-.1s.069-.084.1-.119l.008-.014a.064.064 0 0 1 .028-.034l.083-.125c.028-.042.048-.084.07-.125s.034-.07.048-.1a2.3 2.3 0 0 0 .173-.619 1.2 1.2 0 0 0 .014-.147 3.617 3.617 0 0 0 0-.612 2.721 2.721 0 0 0 -.034-.278v-.006c-.05-.264.034-.48.27-.9a15.666 15.666 0 0 0 1.064-2.281 20.346 20.346 0 0 1 -1.308 2.476 1.1 1.1 0 0 1 -.452.375 1.649 1.649 0 0 0 -.292.147l-.006.006a.038.038 0 0 0 -.028.014v-.02a.071.071 0 0 1 .028-.036c.028-.041.055-.077.083-.125a1.2 1.2 0 0 0 .07-.117.911.911 0 0 0 .048-.1 2.276 2.276 0 0 0 .173-.626c.008-.048.008-.1.014-.145a3.632 3.632 0 0 0 0-.612 2.513 2.513 0 0 0 -.042-.278.967.967 0 0 1 -.006-.133 1.677 1.677 0 0 1 .284-.778 15.358 15.358 0 0 0 1.064-2.281 21.631 21.631 0 0 1 -1.306 2.475 1 1 0 0 1 -.459.377 1.877 1.877 0 0 0 -.292.145v.008c-.008.006-.022.006-.028.014v-.008a.048.048 0 0 1 -.008-.028v-.006l.036-.034v-.008a1.35 1.35 0 0 0 .083-.119 1.088 1.088 0 0 0 .07-.125.764.764 0 0 0 .048-.1 2.292 2.292 0 0 0 .173-.627.852.852 0 0 0 .014-.147 3.072 3.072 0 0 0 0-.611 1.6 1.6 0 0 0 -.034-.278.41.41 0 0 1 -.014-.133 1.632 1.632 0 0 1 .292-.78 15.607 15.607 0 0 0 1.058-2.281 22.317 22.317 0 0 1 -1.3 2.484 1.1 1.1 0 0 1 -.459.369 1.821 1.821 0 0 0 -.292.145v.008c-.014.006-.028.006-.034.02l-.006-.014a.03.03 0 0 0 -.008-.02v-.008l.034-.034c.028-.042.05-.077.084-.125l.069-.119a.717.717 0 0 1 .05-.1 2.311 2.311 0 0 0 .166-.625c.008-.05.014-.091.022-.139a3.722 3.722 0 0 0 0-.62c-.008-.069-.028-.166-.042-.278a.821.821 0 0 1 -.008-.139 1.6 1.6 0 0 1 .286-.772c.153-.27.313-.584.473-.9 1.327 1.01 10.493 23.189 10.368 23.85zm-.473 2.547h.326a3.428 3.428 0 0 0 .042.423h-.6c.222-.119.353-.2.353-.2zm-10.975-26.6a2.571 2.571 0 0 0 -.041-.278.8.8 0 0 1 -.008-.133.774.774 0 0 1 .042-.244c.3.216.647.473 1.03.772a12.033 12.033 0 0 1 -.661 1.148 1.014 1.014 0 0 1 -.453.375c-.1.048-.2.1-.292.147l-.006.006c-.006 0-.014.014-.02.014v-.014c-.008-.006-.008-.006-.008-.02v-.007a.383.383 0 0 1 .028-.034.749.749 0 0 0 .083-.125.836.836 0 0 0 .07-.119c.014-.034.034-.069.048-.1a2.549 2.549 0 0 0 .173-.626.917.917 0 0 0 .014-.147 2.833 2.833 0 0 0 .001-.615zm-.764-.53c.034-.041.055-.083.083-.117a1.368 1.368 0 0 0 .07-.133c.013-.028.034-.069.048-.1a.785.785 0 0 0 .041-.111c.1.063.209.133.32.209a1.158 1.158 0 0 1 -.258.167 1.882 1.882 0 0 0 -.3.145v.006a.069.069 0 0 0 -.028.014v-.014a.044.044 0 0 0 -.006-.027c.008-.017.022-.024.03-.043zm-3.012 20.677a.12.12 0 0 0 .091-.1.175.175 0 0 0 -.173-.159h-.022c-.222-.522-.423-1.016-.619-1.475a.08.08 0 0 1 .034-.034c.008-.008.008-.022.014-.022.036-.048.063-.089.091-.131a1.024 1.024 0 0 0 .07-.1c.027-.048.055-.1.083-.153.034-.077.063-.145.091-.222v-.022c.014-.034.02-.069.034-.1s.014-.083.022-.117a.865.865 0 0 0 .013-.119v-.042a.712.712 0 0 1 .077-.055 2.058 2.058 0 0 0 .238-.25c.034-.05.062-.1.1-.139s.048-.1.07-.141l.006-.013v-.008a.1.1 0 0 0 .02-.034v-.008a.648.648 0 0 0 .05-.131 1.149 1.149 0 0 0 .041-.139c.008-.034.014-.077.022-.111a2.308 2.308 0 0 0 .02-.647 1.062 1.062 0 0 0 -.02-.147 3.449 3.449 0 0 0 -.139-.591c-.028-.07-.07-.167-.1-.264a.727.727 0 0 1 -.07-.32 2.481 2.481 0 0 1 .119-.633 16.16 16.16 0 0 0 .508-2.539 21.271 21.271 0 0 1 -.7 2.789 1.055 1.055 0 0 1 -.355.466l-.008.008c-.091.069-.166.131-.25.208v.008l-.02.02v-.02h-.008c.008-.014.014-.022.022-.036.02-.048.041-.1.055-.139s.022-.1.036-.139.012-.076.02-.111a1.84 1.84 0 0 0 .02-.647c-.006-.048-.006-.1-.014-.139a4.149 4.149 0 0 0 -.145-.6c-.022-.062-.062-.161-.1-.258a.748.748 0 0 1 -.07-.326 2.442 2.442 0 0 1 .119-.626 16.133 16.133 0 0 0 .508-2.539 21.28 21.28 0 0 1 -.7 2.79 1.008 1.008 0 0 1 -.355.466l-.006.006a2.5 2.5 0 0 0 -.244.209v.006c-.008.008-.014.008-.028.022v-.033c-.006-.008-.006-.014-.014-.022v-.006a.165.165 0 0 0 .028-.042v-.006c.02-.042.034-.091.055-.139s.022-.091.036-.139a.642.642 0 0 0 .02-.1 2.248 2.248 0 0 0 .02-.655c-.006-.048-.006-.089-.012-.139a4.1 4.1 0 0 0 -.147-.6 2.125 2.125 0 0 0 -.1-.256v-.008a1.3 1.3 0 0 1 .056-.945 20.378 20.378 0 0 0 .445-2.065 18.116 18.116 0 0 0 1.669 1.731c.362.328.5.5.55.772.014.1.034.209.048.278a3.317 3.317 0 0 0 .2.578c.026.048.041.091.063.133a2.751 2.751 0 0 0 .361.542 1.07 1.07 0 0 1 .084.083c.034.028.069.063.1.091a1.468 1.468 0 0 0 .119.091.135.135 0 0 1 .034.02v.008a.025.025 0 0 0 .014.006c.042.028.091.056.139.084s.1.041.153.063a1.847 1.847 0 0 0 .334.091h.006a.859.859 0 0 1 .119.012h.159a.305.305 0 0 0 .084 0 .594.594 0 0 0 .034.07c.083.536.173 1.12.264 1.745a.065.065 0 0 1 -.034.014.175.175 0 0 0 -.048.237.12.12 0 0 0 .125.034c.5 3.526 1.084 8.29 1.294 12.991-.633 0-1.266.014-1.9.022-.957-2.493-1.95-4.947-2.806-6.992zm-25.67 7.288c.008.084.022.181.028.278a1.13 1.13 0 0 0 -.159.008c.039-.098.082-.188.13-.285zm-69.665 3.282a8.628 8.628 0 0 1 2.539-3.971c.173-.041.562-.139 1.362-.4a14.157 14.157 0 0 1 2.532-.737 9.767 9.767 0 0 1 .423 2.462c-.131.6.341.917-.236 1.356s-.542.8-1.906.848c-1.189.042-2.045-.133-2.309.494-.8.055-1.6.1-2.4.159a.391.391 0 0 1 -.005-.21zm6.78-.216-.4.022a.512.512 0 0 1 .27-.167c.116-.027.144.042.13.147zm-56.7-9.972c.028.361.048.737.077 1.119-.2.453-.4.939-.592 1.454.188-.869.361-1.723.514-2.572zm-1.265 11.12c.52-2.761 1.022-4.938 1.481-6.669.034 1.189.048 2.454.048 3.818-.008 2.162.077 3.915.2 5.34-.78.028-1.551.05-2.323.07.202-.715.404-1.556.593-2.557zm-18.535-12.241v-.006h.008a.222.222 0 0 1 .027-.064.307.307 0 0 0 .084 0h.117l.028-.006h.014c.042-.006.084-.006.125-.014a1.649 1.649 0 0 0 .341-.091l.147-.062c.048-.02.1-.055.139-.077 0-.006.006-.006.014-.014a.13.13 0 0 1 .034-.02h.008v-.008a1.1 1.1 0 0 0 .111-.089c.041-.028.077-.062.111-.091a.736.736 0 0 1 .077-.084 2.489 2.489 0 0 0 .361-.534c.022-.05.042-.091.063-.133a3.1 3.1 0 0 0 .2-.584 1.8 1.8 0 0 0 .048-.272h.008c.041-.27.188-.452.548-.778a17.02 17.02 0 0 0 1.662-1.733 20.371 20.371 0 0 0 .453 2.067 1.394 1.394 0 0 1 .055.951 1.148 1.148 0 0 0 -.1.266 3.122 3.122 0 0 0 -.153.591 1.2 1.2 0 0 1 -.014.147 2.19 2.19 0 0 0 .02.645.584.584 0 0 0 .028.113.4.4 0 0 0 .034.131 1.4 1.4 0 0 0 .048.139v.008c.008.014.022.028.028.041v.008c-.006.006-.006.014-.014.028v.006c-.014-.006-.014-.014-.028-.02v-.003a1.892 1.892 0 0 0 -.242-.208 1.1 1.1 0 0 1 -.363-.466 21.526 21.526 0 0 1 -.7-2.8 16.179 16.179 0 0 0 .508 2.545 1.356 1.356 0 0 1 .056.947c-.05.1-.084.2-.113.264a3.992 3.992 0 0 0 -.145.6 1.459 1.459 0 0 1 -.014.145 2.271 2.271 0 0 0 .02.641c.008.041.014.077.022.111a.907.907 0 0 0 .041.139c.014.048.036.1.05.139l.02.042v.02l-.028-.028v-.006c-.077-.07-.159-.139-.25-.209a1 1 0 0 1 -.355-.466 20.464 20.464 0 0 1 -.7-2.789 15.692 15.692 0 0 0 .516 2.539 1.4 1.4 0 0 1 .048.953 2.665 2.665 0 0 0 -.1.256 2.938 2.938 0 0 0 -.147.6c-.006.048-.013.091-.02.139a2.36 2.36 0 0 0 .02.655c.014.034.014.069.028.1a1.171 1.171 0 0 0 .036.147.829.829 0 0 1 .048.131v.008c.006.006.02.02.02.028v.006a.021.021 0 0 0 .008.014.545.545 0 0 0 .075.139.973.973 0 0 0 .091.139 1.321 1.321 0 0 0 .238.25v.008c.028.014.048.034.077.048v.042c.006.041.006.077.014.125a.563.563 0 0 0 .027.111c.008.042.022.077.028.111a.023.023 0 0 1 .008.014 1.237 1.237 0 0 0 .083.223c.028.048.056.111.091.159a.278.278 0 0 0 .063.1c.028.042.056.091.091.133.006.006.014.014.014.02a.073.073 0 0 1 .034.042c-.187.452-.4.945-.612 1.475h-.02c-.1 0-.187.083-.181.153a.136.136 0 0 0 .091.1c-.633 1.523-1.342 3.276-2.065 5.1a5.633 5.633 0 0 1 .8-3.867 11.511 11.511 0 0 0 -2.365 5.029 1.688 1.688 0 0 0 -.006.612c-.355-.008-.7-.014-1.05-.014.216-4.667.792-9.382 1.294-12.873a.117.117 0 0 0 .117-.042.165.165 0 0 0 -.048-.23.054.054 0 0 0 -.034-.014c.08-.633.165-1.218.247-1.746zm1.614 13.158-.161 1.217a3.316 3.316 0 0 1 -.159-.327c.109-.296.214-.596.318-.89zm-2.19-24.119a1.417 1.417 0 0 0 .089.244l.042.1c.028.042.042.083.07.125s.055.083.083.119h.008a.058.058 0 0 0 .02.034v.048a.108.108 0 0 1 -.028-.02h-.006a1.7 1.7 0 0 0 -.292-.147 1.279 1.279 0 0 1 -.286-.187c.097-.104.2-.209.298-.314zm-.459.48a.819.819 0 0 1 .02.362v.006a2.691 2.691 0 0 0 -.034.28 3.05 3.05 0 0 0 0 .611 1.031 1.031 0 0 0 .014.147 2.3 2.3 0 0 0 .173.619c.014.034.034.069.048.1s.042.083.07.125.048.083.083.125a.079.079 0 0 1 .028.028v.006a.061.061 0 0 0 -.006.028v.006a.4.4 0 0 1 -.036-.02 2.711 2.711 0 0 0 -.292-.153.959.959 0 0 1 -.459-.369c-.173-.256-.353-.57-.52-.876.31-.355.609-.703.909-1.023zm-.961 1.092c.112.216.223.431.328.62a1.315 1.315 0 0 1 .27.911c-.014.1-.028.208-.034.278a3.641 3.641 0 0 0 0 .612c.006.048.006.089.014.139a2.207 2.207 0 0 0 .173.625.492.492 0 0 0 .048.1.734.734 0 0 0 .07.125c.028.042.056.083.083.119v.006a.255.255 0 0 1 .036.042c0 .014 0 .02-.008.028v.006l-.028-.014a3.028 3.028 0 0 0 -.292-.153 1.077 1.077 0 0 1 -.458-.369 18.05 18.05 0 0 1 -1.078-1.989c.291-.381.583-.739.874-1.084zm-1.147 1.44c.083-.111.159-.209.244-.312a18.391 18.391 0 0 0 .862 1.751 1.379 1.379 0 0 1 .278.912v.006c-.02.1-.034.208-.042.272a3.706 3.706 0 0 0 0 .619.84.84 0 0 1 .014.139 2.494 2.494 0 0 0 .173.625.7.7 0 0 0 .048.1c.022.042.05.084.07.125s.056.084.083.119c.014.014.022.028.028.034v.017l.008.006a.008.008 0 0 0 -.008.008c-.006-.008-.014-.008-.028-.014v-.008a1.866 1.866 0 0 0 -.291-.145 1.019 1.019 0 0 1 -.459-.377 20.126 20.126 0 0 1 -1.308-2.475 16.287 16.287 0 0 0 1.064 2.281 1.333 1.333 0 0 1 .278.911v.006c-.02.1-.034.2-.042.272a3.619 3.619 0 0 0 0 .612c.008.055.008.1.014.145a2.333 2.333 0 0 0 .173.626.59.59 0 0 1 .05.1.9.9 0 0 0 .069.117c.028.048.056.084.084.125l.027.036v.006l.008.008a1.555 1.555 0 0 0 .111.117.9.9 0 0 0 .119.112 1.731 1.731 0 0 0 .292.188l.083.041v.022c.006 0 .006.006.014.014a.354.354 0 0 0 .042.117c.014.036.034.07.048.1a.7.7 0 0 1 .048.1c.014.008.014.014.02.022a1.792 1.792 0 0 0 .133.194c.042.042.077.091.125.133a.279.279 0 0 0 .083.077.89.89 0 0 0 .119.111c.008 0 .014.008.02.014s.028.02.042.028c-.077.494-.159 1.022-.25 1.578a.023.023 0 0 1 -.02.008.163.163 0 0 0 -.133.194.115.115 0 0 0 .1.077c-.48 3.054-1.05 6.976-1.419 10.592-.306-1.376-.751-3.025-1.384-5.035a98.33 98.33 0 0 1 -2.72-10.272 31.9 31.9 0 0 1 3.128-5.172zm-3.951 7.03c.2 1.086.419 2.2.655 3.318a25.576 25.576 0 0 0 -1.022-2.358c.115-.325.24-.643.365-.957zm-.7-4.86c.05.472.1.959.167 1.461-.208.125-.431.256-.653.417.162-.641.33-1.263.489-1.876zm-.806 3.129c.159-.153.32-.3.473-.431-.216.417-.417.842-.606 1.266a.2.2 0 0 1 -.055-.048c.066-.256.128-.52.191-.784zm.612 4.207a73.406 73.406 0 0 1 2.295 9.4 24.473 24.473 0 0 0 1.022 3.889c-1.475-.028-2.922-.077-4.367-.127a29.482 29.482 0 0 1 1.053-13.161zm-11.169 3.56c.069.391.137.78.2 1.176.02.1.034.2.055.3-.389 1.92-.667 3.846-.876 5.543l-.034.056c.143-2.786.379-5.123.658-7.072zm-1.114-4.312a5.143 5.143 0 0 1 .244.522l.014.048c.048.133.1.28.145.431-.327 1-.619 2.059-.869 3.145-.006-2-.056-4.007-.167-5.863a7.421 7.421 0 0 0 .636 1.72zm-4.528-2.475a41.631 41.631 0 0 1 1.94 9.875c-.131-.187-.27-.377-.423-.564a41.075 41.075 0 0 0 -1.739-6.724c.073-.887.143-1.749.226-2.583zm2.073 12.378c-.008.1-.014.2-.028.292-.091-.661-.187-1.348-.306-2.051a11.6 11.6 0 0 1 .338 1.763zm-12.571-26.569c.328 1.35.7 2.775 1.092 4.25-.014.786-.041 1.586-.069 2.414a39.892 39.892 0 0 0 -3.081-4.757 25.149 25.149 0 0 1 2.058-1.907zm-3.56 3.589c.048-.062.1-.119.147-.173a41.546 41.546 0 0 1 4.1 8.213 3.565 3.565 0 0 0 -2.065-.681c-.05.063.826.486 2.114 1.572-.008.125-.014.264-.022.4-.166 2.489-.381 5.124-.673 7.879a90.209 90.209 0 0 0 -3.645-16.712c.009-.168.029-.339.043-.499zm-3.637-4.471c-.187.862-.369 1.725-.536 2.593-.034-.083-.069-.159-.1-.244a13.738 13.738 0 0 0 .291-3.282c.108.285.226.591.344.934zm-.417-1.1c.02.048.042.1.063.161-.028.069-.23.758-.751 2.156-.848-2.073-1.447-3.645-1.85-4.765a33.44 33.44 0 0 1 2.542 2.449zm-.891 7.886c-.1.536-.181 1.072-.27 1.608-.119-.216-.237-.439-.362-.647.07-.258.139-.508.2-.766.139-.111.272-.216.4-.312.011.04.018.076.027.117zm-.792-3c-.216.53-.453 1.106-.717 1.739-.055.153-.117.32-.181.487a.071.071 0 0 0 -.013-.034c-.07-.85-.133-1.69-.2-2.525.236-.661.445-1.169.626-1.565q.232.923.485 1.893zm-.606-2.392a6.98 6.98 0 0 0 -.6.653q-.178-2.8-.306-5.41a40.526 40.526 0 0 0 .905 4.752zm-8.679-2.865c.119.814.236 1.662.347 2.539-.2 1.94-.327 4.131-.4 6.405a6.413 6.413 0 0 0 -1 1.251c-1.1-3.568-2.525-6.565-4.409-7.88.1.167 1.856 2.907 3.081 10.683a32.024 32.024 0 0 0 -1.154 3.971c-.028-5.912-.4-12-1.719-13.576a83.288 83.288 0 0 1 .272 11.511 15.862 15.862 0 0 0 -2.525-5.495 90.435 90.435 0 0 1 2.281-13.555 31.714 31.714 0 0 1 5.226 4.141zm-.07 9.555c-.028 1.086-.048 2.178-.055 3.276-.042.111-.084.216-.119.32-.145-.6-.306-1.211-.466-1.8.236-.771.46-1.362.64-1.801zm-1.626 9.049c-.07.369-.139.737-.209 1.106q-.218.291-.417.584c.125-1.33.278-2.518.437-3.582.069.6.132 1.233.188 1.887zm-3.826 3.137c.014.2.036.4.048.611-.02.216-.048.439-.069.661-.034-.244-.07-.494-.1-.744.037-.186.079-.359.12-.533zm-.369-1.009a43.384 43.384 0 0 0 -1.919-7.8c.069-.883.139-1.751.216-2.579a41.511 41.511 0 0 1 1.961 10.035c-.084.103-.182.22-.259.339zm-2.928-26.49a30.8 30.8 0 0 1 4.229-3.637c-2.275 3.087-3.965 8.088-5.209 13.422-.008-2.2-.042-4.4-.112-6.557.39-1.349.765-2.413 1.092-3.233zm-3.595 4.278c-.008.244-.014.494-.022.737-.48 1.28-.925 2.642-1.32 4.068q-.314-.949-.627-1.815c.647-1.084 1.308-2.085 1.969-2.996zm-5.07.048c.159.6.319 1.217.486 1.836-.014.439-.02.883-.034 1.342-.111.175-.222.355-.334.536-.244-.431-.494-.848-.758-1.266.221-.844.439-1.661.64-2.453zm-.2 9.841c.111.083.214.173.327.264-.167 2.615-.391 5.37-.7 8.276-.216-1.592-.467-3.261-.766-4.959.338-1.249.719-2.44 1.138-3.587zm-1.8-2.025c.173-.744.361-1.487.548-2.232.084.181.167.355.252.536-.289.55-.553 1.12-.803 1.691zm2.043 1.378c.008-.008.008-.022.014-.028.008.014.008.028.014.042s-.015-.013-.03-.019zm-1.342-14.8c.147.82.334 1.69.55 2.6-.286.7-.6 1.467-.947 2.3-.117.328-.242.661-.375 1.009-.3-.417-.6-.822-.9-1.217a31.275 31.275 0 0 1 1.67-4.697zm-2.329 7.226q.333.532.667 1.106c-.159.437-.32.883-.486 1.348-.133-.466-.278-.925-.425-1.376.08-.38.157-.735.241-1.083zm-1.378-2.072c-.006.006-.006.013-.012.02-.014-.028-.028-.062-.042-.1a.65.65 0 0 1 .051.075zm-5.479-6.156c.7.619 1.467 1.356 2.267 2.212a44.7 44.7 0 0 1 2.065 7.079c-.153.459-.292.925-.431 1.4-.619-1.773-1.225-3.339-1.725-4.715-1-2.365-1.7-4.173-2.19-5.5.004-.164.004-.327.011-.48zm2.475 14.494a33.975 33.975 0 0 0 -2.448-4.632c-.055-1.892-.077-3.665-.083-5.306.72 3.014 1.716 6.435 2.528 9.933zm-.681 5.549c-.284 1.67-.536 3.311-.751 4.876q-.52-5.008-.764-9.438a39.413 39.413 0 0 1 1.512 4.557zm-4.02-14.347c-.014.284-.028.57-.042.855a.694.694 0 0 0 -.069-.091c.032-.261.078-.518.108-.768zm-.508 3.734c.119.2.236.4.355.606-.034 1.467-.048 2.954-.055 4.429-.2-.814-.4-1.628-.606-2.42.096-.901.192-1.771.303-2.619zm-1.345 16.782q.115 2.161.181 4.542l-.326-.083c.034-1.529.089-3.016.145-4.459zm-6.635-26.2c-.508 1.315-.967 2.734-1.376 4.207-.306-.889-.6-1.745-.9-2.565-.034-1.169-.077-2.323-.139-3.443a28.079 28.079 0 0 1 2.415 1.801zm-4.806-11.648c.1 1.87.2 4.284.23 7.183-.369-.889-.7-1.717-1.016-2.489.258-1.638.523-3.21.787-4.691zm-1.515 9.91c.514 1.983 1.07 4.056 1.612 6.17-.02.522-.041 1.058-.069 1.6-.627-1.266-1.308-2.5-2.031-3.7.154-1.403.313-2.759.488-4.067zm1.03 15.571c-.112 1.294-.237 2.623-.377 3.979-.409-3.012-.953-6.329-1.669-9.549a54.258 54.258 0 0 1 2.046 5.573zm-8.93-17.463c.083.112.167.209.25.328.487.653.973 1.342 1.467 2.065-.111.536-.222 1.07-.326 1.606-.2-.548-.4-1.07-.577-1.564-.348-.836-.661-1.586-.939-2.289zm.536 8.583c-.05.278-.1.548-.147.82a37.358 37.358 0 0 0 -2.845-4.792c-.006-.111-.014-.23-.02-.341a21.8 21.8 0 0 1 1.237-2.511c.529 2.133 1.168 4.448 1.774 6.827zm-.891 5.341c-.292 1.884-.556 3.748-.808 5.549q-.52-5.038-.911-9.807a40.711 40.711 0 0 1 1.719 4.264zm-1.815-16.623c.131.89.327 1.85.55 2.851a11.2 11.2 0 0 0 -1.037 1.35c-.111-1.725-.2-3.407-.284-5.063.255.291.506.568.77.866z" fill="#203825" transform="translate(-424.962 -232.87)"/></svg>