<svg height="77.246" viewBox="0 0 77.325 77.246" width="77.325" xmlns="http://www.w3.org/2000/svg"><g fill-rule="evenodd" transform="translate(-720.249 -126.886)"><path d="m762.268 137.532a31.22 31.22 0 0 1 17.23 5.154l-18.242.542 20.28.918a31.57 31.57 0 0 1 5.755 5.835l-13.611.4 14.376.651a31.268 31.268 0 0 1 2.961 5.293l-20 .594 20.621.935a31.509 31.509 0 0 1 1.547 16.391q-1.713-.351-3.432-.662v-6.542l-.231-.231-6.589-6.589-.148-.149-.207-.055-9.534-2.555-.441-.118-.322.323-7.994 7.993-.232.232v5.233q-1.778-.021-3.556 0v-1.62q.483 0 .967.011v-1.046c-.323-.005-.645-.008-.967-.01v-1.76c-.351 0-.7.009-1.05.015v1.746q-.861 0-1.717.023v-1.728c-.35.01-.7.022-1.05.034v1.723q-.86.028-1.714.069v-1.72q-.525.025-1.049.053v1.723q-.859.049-1.712.112v-1.73c-.349.023-.7.047-1.048.072v1.74q-.854.069-1.706.149v-1.756q-.525.043-1.048.091v1.767q-.849.085-1.7.181v-1.786c-.349.035-.7.073-1.049.11v1.8q-.844.1-1.689.208v-1.816c-.351.042-.7.084-1.05.129v1.82q-.62.082-1.241.168v1.057q.619-.086 1.241-.168v1.552q-5.814.735-11.569 1.914a31.57 31.57 0 0 1 .371-12.526l21.036-.953-20.625-.612a31.111 31.111 0 0 1 2.03-5.2l15.933-.723-15.318-.455a31.494 31.494 0 0 1 3.964-5.625l23.776-1.078-22.124-.657a31.267 31.267 0 0 1 21.874-8.885m17.774 34.614q-2.841-.329-5.691-.553v-5.111h-3.668v4.867q-2.519-.137-5.042-.192v-4.6l7.2-7.2 7.2 7.2zm-20.593-1q-.858.015-1.716.041v-1.653q.856-.02 1.716-.024zm-2.766.075q-.857.032-1.714.072v-1.658q.857-.042 1.714-.071zm-2.763.125q-.857.046-1.712.1v-1.652q.855-.062 1.712-.112zm-2.76.175q-.854.062-1.706.132v-1.619q.852-.08 1.706-.149zm-2.755.223q-.849.077-1.7.162v-1.587q.848-.1 1.7-.182zm-2.748.273c-.563.061-1.127.125-1.689.192v-1.56q.844-.109 1.689-.209z" fill="#336bab" transform="translate(-3.356 -3.357)"/><path d="m721.729 194.245a150.967 150.967 0 0 1 27.071-4.361l-22.785 15.074a38.423 38.423 0 0 1 -4.286-10.713" fill="#136d15" transform="translate(-.467 -19.863)"/><path d="m783.457 217.864-16.106-27.364 11.39 29.927a38.424 38.424 0 0 1 -13.578 3.4l-2.718-32.207-2.715 32.18a38.423 38.423 0 0 1 -13.083-3.366l11.391-29.934-16.108 27.362a38.877 38.877 0 0 1 -9.684-8.788l20.724-19.418q4.822-.306 9.724-.307t9.723.307l20.724 19.418a38.888 38.888 0 0 1 -9.684 8.788" fill="#4aa547" transform="translate(-3.783 -19.695)"/><path d="m814.949 204.958-22.784-15.074a150.934 150.934 0 0 1 27.069 4.361 38.447 38.447 0 0 1 -4.285 10.713" fill="#4aa547" transform="translate(-22.675 -19.863)"/><path d="m725.24 202.56 18.752-11.984q-2.539.267-5.055.619l-15.211 7.822q.671 1.817 1.514 3.543" fill="#4aa547" transform="translate(-1.096 -20.081)"/><g fill="#136d15"><path d="m752.971 189.767-20.724 19.418q1.146 1.462 2.425 2.807l19.512-22.3q-.608.034-1.213.072" transform="translate(-3.783 -19.803)"/><path d="m765.085 189.422-.416 1.093-11.391 29.927q1.74.794 3.566 1.419l9.524-32.469q-.642.012-1.282.03" transform="translate(-10.414 -19.708)"/><path d="m818.857 202.56-18.757-11.984q2.541.267 5.056.619l15.21 7.821a38.442 38.442 0 0 1 -1.514 3.544" transform="translate(-25.178 -20.081)"/><path d="m790.358 189.767 20.723 19.417q-1.146 1.462-2.425 2.807l-19.512-22.3q.607.034 1.214.072" transform="translate(-21.722 -19.803)"/><path d="m782.317 189.422.417 1.093 11.391 29.926a38.284 38.284 0 0 1 -3.567 1.419l-9.523-32.469q.642.012 1.282.03" transform="translate(-19.165 -19.708)"/><path d="m731.573 138.21a38.54 38.54 0 0 0 -11.324 27.339 39.127 39.127 0 0 0 .254 4.464 38.5 38.5 0 0 0 .759 4.369q2.126-.545 4.275-1.029l-.507.11a37.411 37.411 0 0 1 -.842-7.914 37.1 37.1 0 0 1 10.9-26.317l.14-.139a37.224 37.224 0 0 1 46.875-4.481 38.666 38.666 0 0 0 -50.529 3.6"/></g><path d="m792.383 142.142a34.615 34.615 0 0 1 10.17 24.558 35.174 35.174 0 0 1 -.227 3.989 34.739 34.739 0 0 1 -.677 3.917q1.923.44 3.827.927l.145-.639.135-.653c.247-1.248.431-2.5.552-3.743s.183-2.52.183-3.8q0-.733-.027-1.46a36.173 36.173 0 0 0 -57.934-27.4 34.726 34.726 0 0 1 43.853 4.316" fill="#4aa547" transform="translate(-8.917 -1.148)"/></g></svg>