<svg height="76.099" viewBox="0 0 76.099 76.099" width="76.099" xmlns="http://www.w3.org/2000/svg"><g fill-rule="evenodd" transform="translate(-250.328 -56.054)"><path d="m288.377 56.054a38.071 38.071 0 0 1 36.962 47.107 182.915 182.915 0 0 0 -73.923 0 38.073 38.073 0 0 1 36.962-47.107" fill="#336bab"/><path d="m320.807 105.862a186.528 186.528 0 0 0 -56.165 0 29.039 29.039 0 1 1 56.165 0" fill="#4b88ce" transform="translate(-4.348 -4.348)"/><path d="m316.106 109.043a189.321 189.321 0 0 0 -38.066 0 20.027 20.027 0 1 1 38.066 0" fill="#336bab" transform="translate(-8.696 -8.696)"/><path d="m310.955 112.669q-4.7-.235-9.535-.237t-9.534.237a11.016 11.016 0 1 1 19.068 0" fill="#4b88ce" transform="translate(-13.044 -13.044)"/><path d="m312.377 100.224c-.088-.024-1.247-.886-2.128-.513 0 0 .049.813 1.576 1.222 0 0 .217 1.392-3.217.851s-5.912-1.089-7.315-.4-1.814 1.8-1.191 3.45.229 1.489.83 2.373a12.2 12.2 0 0 0 .129 3.86q.748.031 1.492.07a4.117 4.117 0 0 1 -.506-2.089c.039-1.779 1.179-1.416 1.852-1.94s1.213.515 4.627.421 3.006 3.7 3.006 3.7.326.161.058.592q.759.076 1.512.159a2.875 2.875 0 0 1 -.519-1.831 3.565 3.565 0 0 0 -.084-1.964 5.108 5.108 0 0 0 2.148-4.107 8.075 8.075 0 0 1 .235-3.078 1.964 1.964 0 0 0 1.737-.658s-.532-.5-1.821.045a2.217 2.217 0 0 0 -2.422-.164m-42.376-7.394a7.319 7.319 0 0 1 3-1.432 6.614 6.614 0 0 1 -.9 2.238 2.309 2.309 0 0 0 3 1.657c2.553-.537 5.15.449 11.911-.134s6.807 4.791 5.866 9.717a19.283 19.283 0 0 0 .223 3.134 9.671 9.671 0 0 1 -.14 2.882h-.125q-.514 0-1.027 0a8.819 8.819 0 0 0 -.03-3.68.659.659 0 0 0 -.739-.47c-.56.112-.716.739-.515 1.679a6.3 6.3 0 0 1 -.3 2.485q-.614.009-1.228.021a5.543 5.543 0 0 0 -.02-3.29c-.851-2.328-1.97-1.925-3.224-1.455a12.14 12.14 0 0 1 -5.911-.223c-1.468-.5-2.9 1.216-2.954 5.6l-.884.078a16 16 0 0 1 .087-3.46c.28-1.534-.638-.627-.851.974a14.275 14.275 0 0 0 -.1 2.566q-.443.041-.884.086a21.231 21.231 0 0 1 .1-5.574s.447-.357-1.613-1.164-2.911-4.3-3.448-5.328-1.478-.627-1.747-2.284c0 0-.156-.4-1.008-.314s-2.686.09-2.485-1.477a5.226 5.226 0 0 0 2.239-1.657 3.112 3.112 0 0 1 3.707-1.175z" fill="#fff" transform="translate(-4.466 -11.503)"/><path d="m317.12 159.127a38.065 38.065 0 0 1 -40.131 0 77.935 77.935 0 0 1 40.131 0" fill="#4aa547" transform="translate(-8.677 -32.692)"/><path d="m322.458 144.656a38.289 38.289 0 0 1 -6.73 6.9 79.492 79.492 0 0 0 -47.3 0 38.285 38.285 0 0 1 -6.73-6.9 127.791 127.791 0 0 1 60.763 0" fill="#136d15" transform="translate(-3.7 -27.645)"/><path d="m325.353 129.116a37.879 37.879 0 0 1 -3.512 7.439 130.264 130.264 0 0 0 -64.926 0 37.881 37.881 0 0 1 -3.513-7.439 179.972 179.972 0 0 1 71.952 0" fill="#4aa547" transform="translate(-1 -22.597)"/></g></svg>