<svg height="107.24" viewBox="0 0 118.124 107.24" width="118.124" xmlns="http://www.w3.org/2000/svg" xmlns:xlink="http://www.w3.org/1999/xlink"><linearGradient id="a" gradientUnits="objectBoundingBox" x1=".546" x2=".569" y1="8.197" y2="11.821"><stop offset="0" stop-color="#7eb833"/><stop offset=".28" stop-color="#66af26"/><stop offset=".868" stop-color="#289a07"/><stop offset="1" stop-color="#1a9500"/></linearGradient><path d="m381.829 353h-72.774c-10.832 0-19.613 5.914-19.613 13.209h112c0-7.295-8.781-13.209-19.613-13.209z" fill="url(#a)" transform="translate(-289.442 -258.969)"/><path d="m552.953 397.486s1.641-.684 1.895-.781a4.284 4.284 0 0 1 1.823.345 4.975 4.975 0 0 1 1.873 1.153.762.762 0 0 1 .02.638 1.468 1.468 0 0 1 -.437.6.894.894 0 0 1 -.35.789.729.729 0 0 1 -.44.738.7.7 0 0 1 -.407.6 5.889 5.889 0 0 0 -1.033-.155 12.4 12.4 0 0 1 -3.194-1.109s-1.558-.67.25-2.818z" fill="#eea886" transform="translate(-477.353 -359.381)"/><path d="m565.634 407.156a4.374 4.374 0 0 1 -.89.729c-.266.091.692 1.861.692 1.861s.954-1.811.198-2.59z" fill="#cf8c6c" transform="translate(-487.737 -368.004)"/><path d="m548.322 401.167a5 5 0 0 0 1.279-.056c.508-.122-.555 2.33-.555 2.33a4.921 4.921 0 0 0 -1.705-1.173c-.731-.168.981-1.101.981-1.101z" fill="#eea886" transform="translate(-473.304 -363.025)"/><path d="m0 0h52.003v1.061h-52.003z" fill="#8a664d" transform="matrix(.197 -.98 .98 .197 68.925 82.864)"/><path d="m484.373 636.453-2.053 10.215a6.063 6.063 0 0 0 10.921 2.195l2.053-10.215z" fill="#4a3f3f" transform="translate(-419.949 -556.69)"/><path d="m477.211 702.426a7.251 7.251 0 0 0 2.99 2c1.5.344 2.558.784 2.571 1.734s-4.327 1.582-6.05.628c-2.572-1.424-2.832-.993-3.118-1.707s.3-2.621.319-2.851c.02-.284 3.288.196 3.288.196z" fill="#244057" transform="translate(-412.711 -610.742)"/><path d="m392.9 705.819a5.316 5.316 0 0 0 2.552 1.979c1.438.364 2.371 1.06 2.443 1.983s-3.386 2.137-5.82.52c-1.6-1.062-2.195-1-2.518-1.677s.112-2.566.132-2.793c.019-.274 3.211-.012 3.211-.012z" fill="#244057" transform="translate(-343.514 -613.678)"/><path d="m399.555 420.881s1.526 10.912 2.169 14.974c.751 4.75.887 7.368 1.1 9.827.266 3.093-.317 20.686-.133 21.59s-2.922-.461-2.922-.461-2.743-19.274-3.525-22.567c-.728-3.066-3.434-16.266-4.092-15.428s-1.452 15.413-1.936 17.833-2.519 21.075-2.519 21.075-2.067.47-2.964-.286c0 0-1.153-15.829-.85-20.365.116-1.729-2.06-20.721.676-28.372 1.441-4.043 14.996 2.18 14.996 2.18z" fill="#eea886" transform="translate(-338.357 -376.381)"/><path d="m399.555 420.881s1.526 10.912 2.169 14.974c.751 4.75.887 7.368 1.1 9.827.266 3.093.184 14.865.191 15.788.007 1.024-4.464.5-4.464.5s-1.525-14.436-2.307-17.729c-.728-3.066-3.434-16.266-4.092-15.428s-1.452 15.413-1.936 17.833-1.548 16.362-1.548 16.362-3.88.55-4.777-.207c0 0-.312-11.2-.009-15.731.116-1.729-2.06-20.721.676-28.372 1.442-4.04 14.997 2.183 14.997 2.183z" fill="#244057" transform="translate(-338.357 -376.381)"/><path d="m475.967 696.69s2.072.786 2.9.227l.258 1.1a3.069 3.069 0 0 1 -1.814.245 2.874 2.874 0 0 1 -1.543-.518z" fill="#81807e" transform="translate(-414.558 -606.259)"/><path d="m391.036 699.1s2.382.88 3.012.182l.109 1.233s-.235.382-1.165.337a9.591 9.591 0 0 1 -2.142-.458z" fill="#81807e" transform="translate(-344.678 -608.244)"/><path d="m393.665 287.22-.388 3.227c-10.117-4.947-11.445-7.282-11.818-7.757a21.286 21.286 0 0 1 -1.929-3.44c-.046-.111-.088-.218-.124-.321l-.487-1.521c-.219 3.1-.129 7.813-.114 14.209l.252 3.14c-3.436 2.047-16.115 1.328-16.115 1.328l.286-7.575s.236-2.66.246-4.965c0-.264 0-.523-.006-.772 0 0-.01-.383-.052-.969a15.823 15.823 0 0 0 -.952-4.811c-.877-1.859-3.782-2.854-3.948-2.91h-.007s-.021-.127-.053-.344c0-.029-.007-.044-.007-.044a22.372 22.372 0 0 1 -.28-5.263 3.288 3.288 0 0 1 1.875-2.4 51.813 51.813 0 0 1 7.109-3.172c.99.056 3.948.328 4.9.417 0 0 5.865 2.232 7.585 4.092l5.139 11.865z" fill="#ffbf55" transform="translate(-317.719 -249.261)"/><path d="m412.822 237.6s-1.973 1.083-5.721-.763a23.857 23.857 0 0 0 -.377-6.212c-.645-2.478 4.987 3.48 4.987 3.48-.063.041-.085.285-.065.628.006.112.018.234.033.364.02.162.047.334.082.51.009.049.019.1.029.145.182.826.521 1.686 1.032 1.848z" fill="#eea886" transform="translate(-357.699 -222.241)"/><path d="m401.793 196.468a13.078 13.078 0 0 0 1.491 2.453c1.94 2.48 6.453 2.533 6.508-4.284a10.541 10.541 0 0 0 -.413-3.187c-.929-3.024-3.1-3.524-3.1-3.524-1.6-.086-4.41.316-5.342 2.406-.661 1.489-.176 3.947.856 6.136z" fill="#eea987" transform="translate(-352.731 -187.596)"/><path d="m401.793 194.959s.231.061 1.061-1.623c.167-.338.3-.1.368-.246l1.327-.52s-1.317-2.194.4-2.806c1.75-.624 4.43.178 4.43.178.189-5.466-3.1-3.524-3.1-3.524-1.6-.086-4.41.316-5.342 2.406-.661 1.489-.176 3.947.856 6.135z" fill="#665249" transform="translate(-352.731 -186.088)"/><path d="m410.025 217.675c-.1-.456-1-.846-1.381.134s.9 2.017 1.238 1.8.307-1.18.143-1.934z" fill="#eea987" transform="translate(-359.264 -211.69)"/><path d="m371.942 318.742s-3.9 2.379-4.753 2.717c-.611.244-1.469-.68-2.259-2.871a2.92 2.92 0 0 0 -4.818-.193s1.026 6.751 4.047 8.287c1 .507 9.648-5.555 9.648-5.555s-1.041-1.471-1.865-2.385z" fill="#ffbf55" transform="translate(-319.386 -293.96)"/><path d="m408.54 259.786s3.594 1.491 4.618.366l.327.6 1.181 1.636s-5.053 1.389-6.31-.222z" fill="#ffbf55" transform="translate(-359.084 -246.734)"/><path d="m472.106 320.136c-.046-.11-.088-.218-.124-.321l-.487-1.521s-.067-.84-.2-1.922a23.171 23.171 0 0 0 -.71-3.829 7.042 7.042 0 0 1 .964 2.259q.09.324.172.7a19.308 19.308 0 0 1 .385 4.634z" fill="#ab8039" transform="translate(-410.295 -290.147)"/><path d="m394.576 348.39a31.792 31.792 0 0 1 -6.354 5.543c0-.264 0-.523-.006-.772 0 0-.01-.383-.052-.969l.015-.006a38.2 38.2 0 0 0 4.925-2.828c.01-.008 1.469-.967 1.472-.968z" fill="#ab8039" transform="translate(-342.469 -319.646)"/><path d="m418.37 251.531a3.759 3.759 0 0 1 -3.668-2.157 3.719 3.719 0 0 0 3.612 1.607c.02.161.021.374.056.55z" fill="#a77860" transform="translate(-364.306 -238.166)"/><path d="m261.311 216.825.59-.872 46.224 26.168-.59.872z" fill="#8a664d" transform="translate(-238.083 -210.665)"/><path d="m242.836 207.344-4.395-1.853-.3.529 4.259 2.28z" fill="#4a3f3f" transform="translate(-219.017 -202.055)"/><path d="m203.472 198.582 5.169 2.543-2.4 7.851-7.626-3.753z" fill="#4a3f3f" transform="translate(-186.487 -196.37)"/><path d="m432.364 311.236a1.743 1.743 0 0 1 -.187.525s-.226.255-.376.445a1.629 1.629 0 0 0 -.109.152 3.192 3.192 0 0 1 -.577.842 21.377 21.377 0 0 1 -2.088 1.3l-.805-.8-.861-.641a21.541 21.541 0 0 1 1-3.01 1.079 1.079 0 0 1 .082-.089 4.074 4.074 0 0 1 .7-.456c.055-.043.634-.436.835-.378a.683.683 0 0 1 .5.44 1.634 1.634 0 0 1 .741.507 1.015 1.015 0 0 1 .639.628s.493.218.506.535z" fill="#eea886" transform="translate(-374.724 -287.336)"/><path d="m571.248 403.1s-2.1-.628-2.243-.3a.558.558 0 0 0 0 .532l-.982.134a.569.569 0 0 0 .072.976s-.6.367.1.793c0 0-.291.42 0 .675a7.307 7.307 0 0 0 1.661.6s.322-.056.364-.611a.724.724 0 0 0 .517-.687.82.82 0 0 0 .38-.78 1.042 1.042 0 0 0 .336-1.255s-.116-.053-.205-.077z" fill="#db9c7c" transform="translate(-490.271 -364.338)"/><path d="m563.651 397.077a7.452 7.452 0 0 1 1.43 1.87c.078.187.119.383-.026.526s-.535.115-1.029-.312a5.513 5.513 0 0 0 -1.327-.753s-.379-.587.952-1.331z" fill="#eea886" transform="translate(-486.051 -359.71)"/><g fill="#fff" stroke="#4aa547"><circle cx="110.124" cy="10.24" r="8" stroke="none"/><circle cx="110.124" cy="10.24" fill="none" r="7.5"/></g><circle cx="94.124" cy="57.24" fill="#f5c43d" r="8"/><g fill="none" stroke="#336bab"><path d="m86.124 18.24h16v16h-16z" stroke="none"/><path d="m86.624 18.74h15v15h-15z" fill="none"/></g><path d="m102.124 34.24h16v16h-16z" fill="#336bab"/></svg>