<svg height="74.837" viewBox="0 0 74.872 74.837" width="74.872" xmlns="http://www.w3.org/2000/svg" xmlns:xlink="http://www.w3.org/1999/xlink"><linearGradient id="a" gradientUnits="objectBoundingBox" x1=".23" x2=".711" y1="1.06" y2=".095"><stop offset="0" stop-color="#f6761b"/><stop offset="1" stop-color="#fe0"/></linearGradient><g fill-rule="evenodd"><path d="m678.606 213.579a86.05 86.05 0 0 1 32-22.056 85.116 85.116 0 0 1 11.02-3.494q-.674-.011-1.351-.011-3.4 0-6.741.261a85.355 85.355 0 0 0 -38.343 12.521l3.417 12.778z" fill="#4aa547" transform="translate(-646.757 -149.717)"/><path d="m711.237 209.743c-12.4 6.976-25.43 16.729-32.771 28.368a37.787 37.787 0 0 0 13.284.469l1.078-2.371.145-.317v-.01q.588-1.278 1.213-2.534v-.005l.009-.018q.224-.45.453-.9l.015-.028.012-.024.139-.27.01-.02v-.006l.154-.3.012-.024.133-.253.039-.074.071-.133.017-.033.114-.213.012-.023.072-.134.01-.02.037-.068.129-.239.021-.038.019-.035.145-.266v-.008l.147-.268.049-.088.126-.226.037-.066.126-.225.051-.091.117-.207.057-.1.127-.222.034-.059.163-.283.17-.292.01-.018.162-.277.016-.027.1-.17a89.746 89.746 0 0 1 13.915-17.855z" fill="#4aa547" transform="translate(-648.928 -164.121)"/><path d="m682.808 276.318a55.589 55.589 0 0 0 -4.343 5.932 37.414 37.414 0 0 0 5.192.746l2.844.036-4.152-1.707a11.1 11.1 0 0 0 .459-5.007z" fill="#2e833b" transform="translate(-648.928 -208.26)"/><path d="m757.569 192.7a86.217 86.217 0 0 0 -26.744 33.251 37.486 37.486 0 0 0 26.281-25.835h-.03a37.258 37.258 0 0 0 1.063-4.945v-.02q.062-.427.114-.857v-.006l.025-.214.013-.11.01-.094v-.016l.011-.11.011-.11.012-.11.01-.1v-.008q.066-.683.107-1.375-.441.33-.883.659z" fill="#4aa547" transform="translate(-683.642 -152.386)"/><path d="m628.458 74.367a37.215 37.215 0 0 1 21.556 6.839 37.63 37.63 0 0 1 7.352 6.839q.866 1.054 1.655 2.172l-25.984 3.248h28.036l.025.044-.024-.044h.008a37.176 37.176 0 0 1 4.688 15.59h-.012v-.015q.015.21.028.421-3.445-.277-6.963-.282a85.6 85.6 0 0 0 -60.434 24.877 37.281 37.281 0 0 1 -5.876-11.845v-.047a37.408 37.408 0 0 1 -1.461-10.385h12.972l5.357 13.061-4.206-13.061h21.792l-22.746-2.963-4.228-13.127-2.527.1 5.262 12.828-11.383-1.482.011-.087-.011.087h-.008a37.364 37.364 0 0 1 13.671-24.5h22.44l-19.118-2.39a37.2 37.2 0 0 1 20.129-5.878zm24.509 32.966h1.46q-.364-.006-.73-.006t-.73.006zm-61.607-.316c.007-.057.015-.114.022-.171-.007.057-.015.114-.022.171zm.056-.424c.008-.059.017-.119.025-.178-.008.059-.017.119-.025.178zm.063-.436c.009-.06.018-.12.028-.18-.009.06-.018.12-.028.18zm.363-2.027c.021-.1.041-.2.062-.292-.021.1-.042.194-.062.292zm.211-.954.043-.181zm7.6-15.254.2-.235zm1.135-1.307.2-.218zm.431-.466.1-.1zm1.78-1.77.222-.2zm.234-.215q.171-.157.344-.311-.173.155-.344.311zm.345-.312q.409-.365.83-.718-.421.353-.83.718zm.967-.834.216-.179zm-13.285 32.622c-.008-.08-.016-.16-.024-.24q.011.12.024.24z" fill="url(#a)" transform="translate(-590.972 -74.367)"/><path d="m595.97 128.534 13.03 32.551-2.252 1.073-5.878 2.8 1.02 2.832 3.276 7.924a10.856 10.856 0 0 0 2.015 2.184 17.679 17.679 0 0 0 2.927 1.818h18.286l-4.769-1.647a10.015 10.015 0 0 0 .143-6.222l-5.47-15.194-5.879 2.8-.4.893 1.851 10.918-3.766-13.309-4.757-13.767-4.089-11.833-.622-1.8-1.041-3.012-.055-.158-.167-.484-.082-.237-.024-.068a25.984 25.984 0 0 0 3.219-2.179l-1.193-3.314-.222-.618a25.762 25.762 0 0 1 -4.905 3.061 24.071 24.071 0 0 1 -5.35 1.826l.222.618 1.193 3.314a23.747 23.747 0 0 0 3.614-1.078l.122.3zm.1.258-.1-.258z" fill="#163f26" transform="translate(-590.819 -104.945)"/><path d="m621.249 119.889.324-.3 1.091 4.237z" fill="#fff" transform="translate(-610.994 -104.346)"/></g></svg>