<svg height="65.663" viewBox="0 0 90.5 65.663" width="90.5" xmlns="http://www.w3.org/2000/svg" xmlns:xlink="http://www.w3.org/1999/xlink"><linearGradient id="a" gradientUnits="objectBoundingBox" x1="1.017" x2="-.156" y1=".383" y2=".649"><stop offset="0" stop-color="#fe0"/><stop offset="1" stop-color="#f6761b"/></linearGradient><linearGradient id="b" gradientUnits="objectBoundingBox" x2="1" y1=".5" y2=".5"><stop offset="0" stop-color="#47671d"/><stop offset=".454" stop-color="#2f5911"/><stop offset="1" stop-color="#0d4700"/></linearGradient><linearGradient id="c" gradientUnits="objectBoundingBox" x2="1" y1=".5" y2=".5"><stop offset="0" stop-color="#7eb833"/><stop offset=".28" stop-color="#66af26"/><stop offset=".868" stop-color="#289a07"/><stop offset="1" stop-color="#1a9500"/></linearGradient><linearGradient id="d" x1=".546" x2=".569" xlink:href="#c" y1="8.197" y2="11.821"/><path d="m24.1 0c13.38.07 24.284 11.205 24.354 24.871a24.186 24.186 0 0 1 -24.1 24.618c-13.38-.07-24.284-11.205-24.354-24.871a24.186 24.186 0 0 1 24.1-24.618z" fill="url(#a)" transform="matrix(.22585227 -.97416156 .97416156 .22585227 15.673 47.203)"/><g fill="url(#b)"><path d="m313.321 309.079a4.822 4.822 0 0 0 1.34-4.244 4.808 4.808 0 0 0 -5.478 3.476v-3.617a4.817 4.817 0 0 0 5.478-5.6 4.868 4.868 0 0 0 -1.234-.049v-1.762h-.137v1.778a4.82 4.82 0 0 0 -1.474.4v-2.625h-.137v2.695a4.741 4.741 0 0 0 -2.5 3.036v-2.552a4.41 4.41 0 0 0 -.144-7.007v-2.659h-.135v2.651a4.413 4.413 0 0 0 -.265 6.943v2.632a4.775 4.775 0 0 0 -2.759-3.161v-3.236h-.137v3.185a4.841 4.841 0 0 0 -1.474-.326v-2.417h-.137v2.415a4.927 4.927 0 0 0 -.973.063 4.817 4.817 0 0 0 5.478 5.6v3.616a4.807 4.807 0 0 0 -5.478-3.476 4.817 4.817 0 0 0 5.478 5.6v3.8a4.807 4.807 0 0 0 -5.478-3.476 4.817 4.817 0 0 0 5.478 5.6v13.167h.545v-13.18a4.817 4.817 0 0 0 5.478-5.6 4.808 4.808 0 0 0 -5.478 3.476v-3.8a4.815 4.815 0 0 0 4.143-1.346z" transform="translate(-294.006 -272.825)"/><path d="m413.193 309.079a4.823 4.823 0 0 0 1.34-4.244 4.808 4.808 0 0 0 -5.478 3.476v-3.617a4.817 4.817 0 0 0 5.478-5.6 4.867 4.867 0 0 0 -1.234-.049v-1.762h-.137v1.778a4.821 4.821 0 0 0 -1.474.4v-2.625h-.137v2.695a4.741 4.741 0 0 0 -2.5 3.036v-2.552a4.41 4.41 0 0 0 -.144-7.007v-2.659h-.136v2.651a4.413 4.413 0 0 0 -.265 6.943v2.632a4.775 4.775 0 0 0 -2.759-3.161v-3.236h-.137v3.185a4.836 4.836 0 0 0 -1.474-.326v-2.417h-.136v2.415a4.926 4.926 0 0 0 -.973.063 4.817 4.817 0 0 0 5.478 5.6v3.616a4.807 4.807 0 0 0 -5.478-3.476 4.817 4.817 0 0 0 5.478 5.6v3.8a4.807 4.807 0 0 0 -5.478-3.476 4.817 4.817 0 0 0 5.478 5.6v13.167h.545v-13.18a4.817 4.817 0 0 0 5.478-5.6 4.808 4.808 0 0 0 -5.478 3.476v-3.8a4.815 4.815 0 0 0 4.143-1.346z" transform="translate(-332.39 -272.825)"/><path d="m337.987 317.492a4.821 4.821 0 0 0 1.34-4.243 4.807 4.807 0 0 0 -5.478 3.476v-3.617a4.817 4.817 0 0 0 5.478-5.6 4.876 4.876 0 0 0 -1.234-.049v-1.759h-.136v1.778a4.808 4.808 0 0 0 -1.474.4v-2.625h-.136v2.695a4.736 4.736 0 0 0 -2.5 3.036v-2.552a4.409 4.409 0 0 0 -.144-7.007v-2.659h-.137v2.643a4.413 4.413 0 0 0 -.265 6.943v2.632a4.777 4.777 0 0 0 -2.759-3.161v-3.233h-.136v3.185a4.823 4.823 0 0 0 -1.474-.326v-2.416h-.132v2.415a4.87 4.87 0 0 0 -.973.063 4.817 4.817 0 0 0 5.478 5.6v3.616a4.808 4.808 0 0 0 -5.478-3.476 4.817 4.817 0 0 0 5.478 5.6v3.8a4.808 4.808 0 0 0 -5.478-3.476 4.817 4.817 0 0 0 5.478 5.6v13.155h.545v-13.167a4.817 4.817 0 0 0 5.478-5.6 4.806 4.806 0 0 0 -5.478 3.476v-3.8a4.815 4.815 0 0 0 4.137-1.347z" transform="translate(-303.405 -276.175)"/></g><path d="m363.157 309.079a4.823 4.823 0 0 0 1.34-4.244 4.807 4.807 0 0 0 -5.478 3.476v-3.617a4.817 4.817 0 0 0 5.478-5.6 4.872 4.872 0 0 0 -1.234-.049v-1.762h-.136v1.778a4.824 4.824 0 0 0 -1.474.4v-2.625h-.136v2.695a4.736 4.736 0 0 0 -2.5 3.036v-2.552a4.409 4.409 0 0 0 -.144-7.007v-2.659h-.137v2.651a4.413 4.413 0 0 0 -.265 6.943v2.632a4.777 4.777 0 0 0 -2.759-3.161v-3.236h-.136v3.185a4.84 4.84 0 0 0 -1.474-.326v-2.417h-.136v2.415a4.923 4.923 0 0 0 -.973.063 4.817 4.817 0 0 0 5.478 5.6v3.616a4.808 4.808 0 0 0 -5.478-3.476 4.816 4.816 0 0 0 5.478 5.6v3.8a4.808 4.808 0 0 0 -5.478-3.476 4.817 4.817 0 0 0 5.478 5.6v13.167h.545v-13.18a4.817 4.817 0 0 0 5.478-5.6 4.807 4.807 0 0 0 -5.478 3.476v-3.8a4.815 4.815 0 0 0 4.141-1.346z" fill="url(#c)" transform="translate(-313.149 -272.825)"/><path d="m387.822 317.492a4.819 4.819 0 0 0 1.34-4.243 4.808 4.808 0 0 0 -5.478 3.476v-3.617a4.817 4.817 0 0 0 5.478-5.6 4.87 4.87 0 0 0 -1.234-.049v-1.759h-.137v1.778a4.8 4.8 0 0 0 -1.474.4v-2.625h-.137v2.695a4.741 4.741 0 0 0 -2.5 3.036v-2.552a4.41 4.41 0 0 0 -.144-7.007v-2.659h-.136v2.643a4.413 4.413 0 0 0 -.265 6.943v2.632a4.775 4.775 0 0 0 -2.759-3.161v-3.233h-.137v3.185a4.815 4.815 0 0 0 -1.474-.326v-2.416h-.137v2.415a4.876 4.876 0 0 0 -.973.063 4.817 4.817 0 0 0 5.478 5.6v3.616a4.807 4.807 0 0 0 -5.478-3.476 4.817 4.817 0 0 0 5.478 5.6v3.8a4.807 4.807 0 0 0 -5.478-3.476 4.817 4.817 0 0 0 5.478 5.6v13.155h.545v-13.167a4.817 4.817 0 0 0 5.478-5.6 4.808 4.808 0 0 0 -5.478 3.476v-3.8a4.814 4.814 0 0 0 4.144-1.347z" fill="url(#b)" transform="translate(-322.698 -276.175)"/><path d="m364.094 353h-58.8c-8.753 0-15.848 4.67-15.848 10.432h90.5c-.004-5.762-7.099-10.432-15.852-10.432z" fill="url(#d)" transform="translate(-289.442 -297.768)"/></svg>