<svg height="77" width="77" xmlns="http://www.w3.org/2000/svg"><filter id="a" filterUnits="userSpaceOnUse" height="77" width="77" x="0" y="0"><feOffset dy="3"/><feGaussianBlur result="b" stdDeviation="3"/><feFlood flood-opacity=".376"/><feComposite in2="b" operator="in"/><feComposite in="SourceGraphic"/></filter><g filter="url(#a)"><circle cx="29.5" cy="29.5" fill="#f5c43d" r="29.5" transform="translate(9 6)"/></g><g fill="#fff" opacity=".198"><path d="M25.904 53.435v.339l-3.177-4.364v-.339z"/><path d="M33.643 55.483v.339l-7.742-2.047v-.339z"/><path d="M42.917 43.552l-17.029 9.865.013.018 7.742 2.048.025.031 17.041-9.978z"/><path d="M54.276 50.114l-3.532-4.569-.036-.009-17.041 9.978 3.6 4.485zM42.909 43.551l-3.176-4.364-17.009 9.884 3.164 4.346 17.029-9.865z"/><path d="M54.277 50.114v.339l-17.009 9.884v-.339zM37.267 59.998v.339l-3.625-4.515v-.339z"/></g><path d="M25.905 50.435v.339l-3.177-4.364v-.339z" fill="#898883"/><path d="M33.644 52.483v.339l-7.742-2.047v-.339z" fill="#bab9b1"/><path d="M42.918 40.552l-17.029 9.865.013.018 7.742 2.048.025.031 17.041-9.978z" fill="#e8e8e8"/><path d="M54.277 47.114l-3.532-4.569-.036-.009-17.041 9.978 3.6 4.485z" fill="#f4f4f4"/><path d="M42.91 40.551l-3.176-4.364-17.009 9.884 3.164 4.346 17.029-9.865z" fill="#cecece"/><path d="M54.278 47.114v.339l-17.009 9.884v-.339z" fill="#c6c5c1"/><path d="M37.268 56.998v.339l-3.625-4.515v-.339z" fill="#919087"/><path d="M38.499 16c-6.807 0-10.539 4.26-10.539 9.172 0 6.044 10.539 21.26 10.539 21.26s10.542-15.216 10.542-21.26C49.049 20.26 46.497 16 38.499 16zm.036 13.283a3.724 3.724 0 01-3.939-3.645 4.011 4.011 0 014.164-4.062 3.756 3.756 0 013.672 3.849 3.837 3.837 0 01-3.888 3.858z" fill="#336bab"/></svg>