<svg height="89.713" viewBox="0 0 112 89.713" width="112" xmlns="http://www.w3.org/2000/svg" xmlns:xlink="http://www.w3.org/1999/xlink"><linearGradient id="a" gradientUnits="objectBoundingBox" x1=".546" x2=".569" y1="8.197" y2="11.821"><stop offset="0" stop-color="#7eb833"/><stop offset=".28" stop-color="#66af26"/><stop offset=".868" stop-color="#289a07"/><stop offset="1" stop-color="#1a9500"/></linearGradient><path d="m381.829 353h-72.774c-10.832 0-19.613 5.914-19.613 13.209h112c0-7.295-8.781-13.209-19.613-13.209z" fill="url(#a)" transform="translate(-289.442 -276.496)"/><g fill="#f5c43d"><path d="m185.393 33.9c-17.111 0-26.493 10.71-26.493 23.058 0 15.194 26.493 53.446 26.493 53.446s26.5-38.252 26.5-53.446c.022-12.348-6.393-23.058-26.5-23.058zm.091 33.391c-5.555 0-9.9-3.88-9.9-9.163a10.083 10.083 0 0 1 10.469-10.212 9.442 9.442 0 0 1 9.231 9.676 9.646 9.646 0 0 1 -9.774 9.7z" transform="translate(-129.396 -33.9)"/><path d="m172.752 33.9c-8.946 0-13.852 5.6-13.852 12.056 0 7.944 13.852 27.944 13.852 27.944s13.856-20 13.856-27.944c.011-6.456-3.343-12.056-13.856-12.056zm.047 17.459a4.894 4.894 0 0 1 -5.178-4.791 5.272 5.272 0 0 1 5.474-5.339 4.937 4.937 0 0 1 4.826 5.059 5.043 5.043 0 0 1 -5.111 5.071z" transform="translate(-78.754 2.604)"/><path d="m172.752 33.9c-8.946 0-13.852 5.6-13.852 12.056 0 7.944 13.852 27.944 13.852 27.944s13.856-20 13.856-27.944c.011-6.456-3.343-12.056-13.856-12.056zm.047 17.459a4.894 4.894 0 0 1 -5.178-4.791 5.272 5.272 0 0 1 5.474-5.339 4.937 4.937 0 0 1 4.826 5.059 5.043 5.043 0 0 1 -5.111 5.071z" transform="translate(-154.982 2.604)"/></g></svg>