<svg height="62.306" viewBox="0 0 90.499 62.306" width="90.499" xmlns="http://www.w3.org/2000/svg" xmlns:xlink="http://www.w3.org/1999/xlink"><linearGradient id="a" gradientUnits="objectBoundingBox" x1="-.023" x2=".522" y1="-.553" y2=".822"><stop offset="0" stop-color="#47671d"/><stop offset=".454" stop-color="#2f5911"/><stop offset="1" stop-color="#0d4700"/></linearGradient><linearGradient id="b" gradientUnits="objectBoundingBox" x1=".5" x2=".5" y2="1"><stop offset="0" stop-color="#fe0"/><stop offset="1" stop-color="#f6761b"/></linearGradient><linearGradient id="c" gradientUnits="objectBoundingBox" x1=".546" x2=".569" y1="8.197" y2="11.821"><stop offset="0" stop-color="#7eb833"/><stop offset=".28" stop-color="#4aa547"/><stop offset=".868" stop-color="#289a07"/><stop offset="1" stop-color="#1a9500"/></linearGradient><path d="m126.491 110.213-6.264-2.626a.932.932 0 0 0 -.957.143v-.53a1.752 1.752 0 0 0 1.308-1.692 2.3 2.3 0 0 0 -.146-.806l-3.215-8.572a2.292 2.292 0 0 0 -.882-1.108l-10.87-8.034a2.294 2.294 0 0 0 -2.533 0l-8.712 6.439v-15.733h1.423a.546.546 0 0 0 .441-.868.56.56 0 0 0 -.155-.142l-8.729-5.353-8.733 5.353a.569.569 0 0 0 -.155.142.546.546 0 0 0 .441.868h1.245v55.244h14.223v-.177h3.612v-22.115l6.608-2.9 6.608 2.9v22.742h7.079v.177l7.774-10.659v-10.906a.941.941 0 0 0 .588-1.782zm-25.502-14.513h6.9v6.614h-6.9zm-15.013-3.9h-3.544v-4.341h3.544zm0-6.824h-3.544v-4.34h3.544z" fill="url(#a)" transform="translate(-70.674 -71.331)"/><circle cx="7.295" cy="7.295" fill="url(#b)" r="7.295" transform="matrix(.96395623 -.26606088 .26606088 .96395623 58.366 10.007)"/><g fill="none" stroke="#e8cb1b" stroke-miterlimit="10"><path d="m60.026 6.392 1.148 1.38"/><path d="m64.416 4.256.457 1.736"/><path d="m69.298 4.173-.318 1.767"/><path d="m73.758 6.16-1.035 1.467"/><path d="m76.962 9.845-1.558.893"/><path d="m78.31 14.538-1.789.151"/><path d="m77.549 19.36-1.685-.618"/><path d="m74.823 23.411-1.267-1.272"/><path d="m70.641 25.931-.611-1.688"/><path d="m65.786 26.45.159-1.788"/><path d="m61.166 24.869.9-1.553"/><path d="m57.646 21.485 1.472-1.028"/><path d="m55.885 16.931 1.768-.31"/><path d="m56.212 12.06 1.734.465"/></g><path d="m364.094 353h-58.8c-8.753 0-15.848 4.854-15.848 10.843h90.5c-.005-5.989-7.1-10.843-15.852-10.843z" fill="url(#c)" transform="translate(-289.442 -301.537)"/></svg>